<?xml version="1.0" encoding="UTF-8"?>
<svg enable-background="new 0 0 300 57" version="1.1" viewBox="0 0 300 57" xml:space="preserve" xmlns="http://www.w3.org/2000/svg">
<style type="text/css">
	.st0{fill:#0066A5;}
	.st1{fill:#0D0E0E;}
</style>

	<path class="st0" d="m16.05 19.39h-9.2l-1.09 2.53c-0.36 0.84-0.54 1.54-0.54 2.09 0 0.73 0.29 1.27 0.88 1.61 0.35 0.2 1.2 0.36 2.55 0.46v0.71h-8.65v-0.71c0.93-0.14 1.7-0.53 2.3-1.16s1.35-1.94 2.23-3.92l9.31-20.77h0.36l9.39 21.34c0.9 2.02 1.63 3.3 2.21 3.82 0.44 0.4 1.05 0.63 1.84 0.69v0.71h-12.59v-0.71h0.52c1.01 0 1.72-0.14 2.13-0.42 0.28-0.2 0.42-0.5 0.42-0.88 0-0.23-0.04-0.47-0.12-0.71-0.03-0.12-0.22-0.6-0.58-1.44l-1.37-3.24zm-0.66-1.42-3.87-8.97-3.99 8.96h7.86z"/>
	<path class="st0" d="m29 0.77h13.44v0.71h-0.67c-1.01 0-1.71 0.11-2.08 0.32-0.38 0.21-0.65 0.5-0.81 0.87s-0.24 1.3-0.24 2.78v12.75c0 2.33 0.18 3.87 0.53 4.63s0.93 1.38 1.74 1.88 1.82 0.75 3.05 0.75c1.41 0 2.61-0.32 3.6-0.95s1.73-1.51 2.23-2.62c0.49-1.11 0.74-3.05 0.74-5.82v-10.62c0-1.16-0.12-2-0.36-2.5s-0.55-0.84-0.92-1.04c-0.58-0.29-1.39-0.44-2.44-0.44v-0.7h9v0.71h-0.54c-0.73 0-1.34 0.15-1.82 0.44-0.49 0.29-0.84 0.74-1.06 1.32-0.17 0.41-0.25 1.15-0.25 2.21v9.89c0 3.06-0.2 5.27-0.61 6.62-0.4 1.36-1.38 2.6-2.95 3.74-1.56 1.14-3.69 1.71-6.39 1.71-2.25 0-3.99-0.3-5.22-0.9-1.68-0.82-2.86-1.87-3.55-3.15s-1.04-3-1.04-5.16v-12.75c0-1.5-0.08-2.43-0.25-2.79-0.16-0.37-0.45-0.66-0.86-0.88s-1.17-0.32-2.27-0.3v-0.71z"/>
	<path class="st0" d="m81.27 0.77v7.04h-0.69c-0.41-1.63-0.86-2.79-1.36-3.5s-1.18-1.28-2.05-1.7c-0.49-0.23-1.34-0.35-2.55-0.35h-1.94v20.08c0 1.33 0.07 2.16 0.22 2.5 0.15 0.33 0.44 0.62 0.87 0.87s1.01 0.37 1.76 0.37h0.86v0.71h-13.64v-0.71h0.86c0.76 0 1.36-0.13 1.82-0.4 0.33-0.18 0.6-0.49 0.79-0.92 0.14-0.31 0.21-1.11 0.21-2.42v-20.08h-1.88c-1.75 0-3.03 0.37-3.82 1.11-1.11 1.04-1.82 2.51-2.11 4.43h-0.73v-7.03h23.38z"/>
	<path class="st0" d="m97.17 0.4c4.15-0.15 7.52 1.06 10.11 3.63s3.89 5.79 3.89 9.66c0 3.3-0.97 6.21-2.9 8.71-2.56 3.33-6.17 4.99-10.85 4.99s-8.31-1.59-10.86-4.76c-2.02-2.51-3.03-5.48-3.03-8.93 0-3.86 1.32-7.09 3.94-9.66 2.62-2.58 5.86-3.79 9.7-3.64zm0.23 1.23c-2.38 0-4.19 1.22-5.43 3.65-1.01 2-1.52 4.86-1.52 8.6 0 4.44 0.78 7.72 2.34 9.85 1.09 1.48 2.61 2.23 4.57 2.23 1.32 0 2.42-0.32 3.3-0.96 1.13-0.82 2-2.13 2.63-3.93s0.94-4.14 0.94-7.03c0-3.44-0.32-6.02-0.96-7.73s-1.46-2.91-2.45-3.62-2.13-1.06-3.42-1.06z"/>
	<path class="st0" d="m131.29 17.93 7.06-17.16h10.6v0.71h-0.84c-0.77 0-1.38 0.13-1.84 0.4-0.32 0.18-0.58 0.48-0.77 0.9-0.14 0.31-0.21 1.11-0.21 2.4v17.16c0 1.33 0.07 2.16 0.21 2.5 0.14 0.33 0.43 0.62 0.86 0.87s1.02 0.37 1.75 0.37h0.84v0.71h-13.59v-0.71h0.84c0.77 0 1.38-0.13 1.84-0.4 0.32-0.18 0.58-0.49 0.77-0.92 0.14-0.31 0.21-1.11 0.21-2.42v-19.29l-9.98 23.74h-0.46l-10.13-23.57v18.33c0 1.28 0.03 2.07 0.1 2.36 0.17 0.64 0.53 1.16 1.09 1.56s1.43 0.6 2.62 0.6v0.71h-8.91v-0.71h0.27c0.58 0.01 1.11-0.08 1.61-0.28s0.88-0.46 1.13-0.8 0.45-0.8 0.6-1.4c0.03-0.14 0.04-0.79 0.04-1.96v-16.45c0-1.32-0.07-2.14-0.21-2.47s-0.43-0.61-0.86-0.86c-0.44-0.25-1.02-0.37-1.75-0.37h-0.83v-0.71h10.63l7.31 17.16z"/>
	<path class="st0" d="m166.02 19.39h-9.19l-1.09 2.53c-0.36 0.84-0.54 1.54-0.54 2.09 0 0.73 0.29 1.27 0.88 1.61 0.35 0.2 1.2 0.36 2.55 0.46v0.71h-8.66v-0.71c0.93-0.14 1.7-0.53 2.3-1.16s1.34-1.94 2.23-3.93l9.31-20.77h0.36l9.39 21.34c0.9 2.02 1.63 3.3 2.21 3.82 0.44 0.4 1.05 0.63 1.84 0.69v0.71h-12.59v-0.71h0.52c1.01 0 1.72-0.14 2.13-0.42 0.28-0.2 0.42-0.5 0.42-0.88 0-0.23-0.04-0.47-0.12-0.71-0.03-0.12-0.22-0.6-0.58-1.44l-1.37-3.23zm-0.65-1.42-3.88-8.97-3.99 8.96h7.87z"/>
	<path class="st0" d="m199.94 0.77v7.04h-0.69c-0.41-1.63-0.86-2.79-1.36-3.5s-1.18-1.28-2.05-1.7c-0.49-0.23-1.34-0.35-2.55-0.35h-1.94v20.08c0 1.33 0.07 2.16 0.22 2.5 0.15 0.33 0.44 0.62 0.87 0.87s1.01 0.37 1.76 0.37h0.86v0.71h-13.63v-0.71h0.86c0.76 0 1.36-0.13 1.82-0.4 0.33-0.18 0.6-0.49 0.79-0.92 0.14-0.31 0.21-1.11 0.21-2.42v-20.08h-1.88c-1.75 0-3.03 0.37-3.82 1.11-1.11 1.04-1.82 2.51-2.11 4.43h-0.73v-7.03h23.37z"/>
	<path class="st0" d="m215.75 26.09v0.71h-13.61v-0.71h0.86c0.76 0 1.36-0.13 1.82-0.4 0.33-0.18 0.59-0.49 0.77-0.92 0.14-0.31 0.21-1.11 0.21-2.42v-17.13c0-1.33-0.07-2.16-0.21-2.5s-0.43-0.62-0.85-0.87c-0.43-0.25-1.01-0.37-1.74-0.37h-0.86v-0.71h13.61v0.71h-0.86c-0.76 0-1.36 0.13-1.82 0.4-0.33 0.18-0.6 0.49-0.79 0.92-0.14 0.31-0.21 1.11-0.21 2.42v17.12c0 1.33 0.07 2.16 0.22 2.5 0.15 0.33 0.44 0.62 0.87 0.87s1.01 0.37 1.74 0.37h0.85z"/>
	<path class="st0" d="m240.65 0.77-15.3 24.57h4.95c2.34 0 3.98-0.15 4.91-0.44 1.52-0.46 2.83-1.31 3.93-2.54s1.86-2.89 2.28-4.96h0.75l-1.06 9.41h-23.84l15.32-24.61h-3.86c-1.5 0-2.48 0.04-2.96 0.13-0.9 0.17-1.74 0.5-2.52 0.99-0.79 0.49-1.44 1.15-1.96 1.97s-0.93 1.86-1.22 3.11h-0.71l0.71-7.62h20.58z"/>
	<path class="st0" d="m259.23 19.39h-9.19l-1.09 2.53c-0.36 0.84-0.54 1.54-0.54 2.09 0 0.73 0.29 1.27 0.88 1.61 0.35 0.2 1.2 0.36 2.55 0.46v0.71h-8.66v-0.71c0.93-0.14 1.7-0.53 2.3-1.16s1.34-1.94 2.23-3.93l9.31-20.77h0.36l9.39 21.34c0.9 2.02 1.63 3.3 2.21 3.82 0.44 0.4 1.05 0.63 1.84 0.69v0.71h-12.59v-0.71h0.52c1.01 0 1.72-0.14 2.13-0.42 0.28-0.2 0.42-0.5 0.42-0.88 0-0.23-0.04-0.47-0.12-0.71-0.03-0.12-0.22-0.6-0.58-1.44l-1.37-3.23zm-0.65-1.42-3.88-8.97-3.99 8.96h7.87z"/>
	<path class="st0" d="m281.71 14.93v7.29c0 1.41 0.09 2.29 0.26 2.66 0.17 0.36 0.48 0.66 0.91 0.87s1.25 0.33 2.44 0.33v0.71h-13.32v-0.71c1.2 0 2.02-0.11 2.45-0.34 0.43-0.22 0.73-0.52 0.9-0.87 0.17-0.36 0.26-1.24 0.26-2.65v-16.88c0-1.41-0.09-2.29-0.26-2.66-0.17-0.36-0.48-0.66-0.91-0.87s-1.25-0.33-2.44-0.33v-0.71h12.09c3.15 0 5.45 0.22 6.91 0.65s2.65 1.24 3.57 2.41 1.38 2.54 1.38 4.12c0 1.92-0.69 3.51-2.07 4.76-0.88 0.79-2.12 1.39-3.7 1.79l6.26 8.81c0.82 1.14 1.4 1.85 1.75 2.13 0.52 0.4 1.13 0.61 1.82 0.65v0.71h-8.2l-8.39-11.86h-1.71zm0-12.76v11.4h1.09c1.78 0 3.11-0.16 3.99-0.49s1.58-0.91 2.08-1.77c0.51-0.85 0.76-1.96 0.76-3.33 0-1.98-0.46-3.45-1.39-4.4s-2.42-1.42-4.48-1.42h-2.05z"/>


	<path class="st1" d="m54.43 47.34-0.09 0.39c-0.03 0.13-0.06 0.25-0.08 0.34s-0.04 0.18-0.06 0.25-0.03 0.14-0.05 0.21c-0.44 1.87-0.79 3.03-1.05 3.5-0.12 0.21-0.3 0.39-0.55 0.55-0.76 0.5-1.36 0.75-1.8 0.75-0.3 0-0.56-0.11-0.77-0.33s-0.31-0.5-0.31-0.82c0-0.59 0.26-1.69 0.78-3.29 0.16-0.51 0.3-0.95 0.43-1.33s0.29-0.8 0.47-1.27 0.39-0.98 0.63-1.51c0.23-0.53 0.4-0.91 0.5-1.13-0.8 0.12-1.57 0.18-2.31 0.18-0.75 0-1.12-0.26-1.12-0.78 0-0.33 0.24-0.76 0.73-1.27 0.33-0.33 0.63-0.57 0.91-0.7s0.62-0.2 1.01-0.2c0.25 0 0.6 0.01 1.05 0.02 0.44 0.02 1.06 0.05 1.85 0.1l0.25 0.02 0.25 0.03c0.67 0.04 1.11 0.08 1.32 0.13s0.39 0.14 0.55 0.28c0.12 0.14 0.18 0.3 0.18 0.48 0 0.19-0.04 0.39-0.11 0.59-0.08 0.2-0.17 0.35-0.28 0.45-0.15 0.17-0.58 0.31-1.28 0.43-0.06 0-0.12 0.01-0.19 0.02l-0.18 0.04c0.15 0.15 0.22 0.31 0.22 0.48s-0.08 0.54-0.25 1.1c-0.05 0.14-0.18 0.6-0.39 1.37l-0.14 0.55-0.12 0.37z"/>
	<path class="st1" d="m58.98 50.49-0.04 0.18c0 0.1-0.01 0.25-0.04 0.45-0.02 0.3-0.06 0.54-0.1 0.73s-0.11 0.34-0.19 0.47-0.2 0.26-0.35 0.4c-0.44 0.41-0.89 0.61-1.34 0.61-0.36 0-0.63-0.13-0.8-0.4s-0.26-0.7-0.26-1.29c0-0.47 0.05-1.06 0.16-1.75s0.23-1.32 0.39-1.87l0.07-0.24c0-0.04 0.02-0.11 0.05-0.23 0.22-0.82 0.43-1.43 0.62-1.83s0.42-0.72 0.68-0.96c0.24-0.19 0.5-0.28 0.8-0.28 0.43 0 0.69 0.26 0.78 0.78 0.08-0.07 0.17-0.16 0.25-0.25 0.18-0.21 0.31-0.35 0.41-0.42s0.21-0.1 0.34-0.1c0.52 0 0.78 0.52 0.78 1.55 0 0.56-0.06 1.11-0.18 1.64s-0.27 0.96-0.46 1.29c-0.18 0.33-0.37 0.5-0.55 0.5-0.2 0-0.3-0.38-0.3-1.14 0-0.4-0.02-0.71-0.07-0.94s-0.12-0.4-0.21-0.53c-0.18 0.34-0.3 1.11-0.35 2.33-0.05 0.68-0.08 1.12-0.09 1.3z"/>
	<path class="st1" d="m68.16 50.62v0.04l-0.04-0.04c-0.56 0.66-1.08 1.2-1.55 1.62s-0.9 0.74-1.3 0.95-0.76 0.32-1.1 0.32c-0.68 0-1.24-0.23-1.68-0.68s-0.66-1.03-0.66-1.73c0-0.43 0.11-0.94 0.33-1.53s0.52-1.16 0.9-1.73c0.64-0.92 1.44-1.7 2.4-2.35 0.99-0.66 1.95-0.99 2.87-0.99 0.78 0 1.41 0.16 1.91 0.48s0.75 0.72 0.75 1.2c0 0.36-0.12 0.74-0.37 1.14 0.33 0 0.53 0.03 0.62 0.1s0.13 0.23 0.13 0.49c0-0.02-0.02 0.1-0.05 0.37-0.04 0.6-0.05 1.16-0.05 1.68 0 0.27 0 0.48 0.01 0.62s0.02 0.3 0.04 0.48 0.04 0.33 0.05 0.44c0.05 0.28 0.13 0.57 0.24 0.85-0.36 0.36-0.71 0.62-1.05 0.79s-0.67 0.25-1.02 0.25c-0.93 0-1.4-0.78-1.4-2.35 0-0.18 0-0.32 0.02-0.42zm0.54-2.08-0.17 0.05c-0.44 0.12-0.75 0.18-0.95 0.18-0.24 0-0.35-0.06-0.35-0.18 0-0.04 0.05-0.15 0.15-0.34 0.34-0.52 0.51-1 0.51-1.45 0-0.26-0.05-0.5-0.14-0.71-0.09-0.22-0.19-0.32-0.3-0.32-0.1 0-0.25 0.1-0.45 0.31-0.56 0.61-1.01 1.24-1.34 1.88s-0.5 1.21-0.5 1.72c0 0.33 0.07 0.61 0.2 0.83s0.31 0.33 0.51 0.33c0.18 0 0.5-0.19 0.99-0.56 0.48-0.38 1.02-0.87 1.62-1.49l0.25-0.2-0.03-0.05z"/>
	<path class="st1" d="m76.47 48.47 0.55-0.64c0.55-0.61 0.99-1.07 1.32-1.37 0.32-0.3 0.61-0.52 0.87-0.65s0.52-0.2 0.79-0.2c0.43 0 0.73 0.12 0.91 0.35s0.26 0.63 0.26 1.2c0 0.24-0.02 0.58-0.07 1.05-0.07 0.61-0.11 1.19-0.11 1.73 0 0.61 0.03 1.1 0.09 1.47 0.04 0.23 0.11 0.46 0.19 0.69 0.06 0.22 0.09 0.37 0.09 0.45 0 0.1-0.04 0.17-0.11 0.23-0.19 0.16-0.44 0.31-0.75 0.43s-0.57 0.18-0.78 0.18c-0.35 0-0.66-0.12-0.94-0.35-0.28-0.24-0.5-0.56-0.65-0.98s-0.23-0.89-0.23-1.42c0-0.35 0.04-0.77 0.11-1.25l-0.04-0.04c-0.26 0.29-0.47 0.52-0.63 0.69s-0.31 0.33-0.45 0.48c-0.68 0.78-1.25 1.48-1.73 2.1-0.18 0.24-0.35 0.45-0.5 0.64-0.22 0.22-0.48 0.34-0.76 0.34-0.39 0-0.7-0.15-0.95-0.44-0.24-0.29-0.36-0.67-0.36-1.13 0-0.28 0.03-0.63 0.1-1.05 0.07-0.41 0.16-0.85 0.27-1.32s0.25-0.95 0.4-1.45 0.32-0.97 0.5-1.42c0.28-0.75 0.62-1.33 1.02-1.75 0.27-0.27 0.6-0.41 0.99-0.41 0.63 0 0.95 0.41 0.95 1.23 0 0.6-0.13 1.46-0.38 2.58l0.03 0.03z"/>
	<path class="st1" d="m84.77 53.66c0.36-0.02 0.68-0.19 0.98-0.52 0.29-0.33 0.44-0.69 0.44-1.08 0-0.27-0.09-0.48-0.26-0.64-0.19-0.19-0.61-0.37-1.26-0.55-0.96-0.28-1.59-0.59-1.88-0.94-0.27-0.28-0.41-0.61-0.41-1 0-0.7 0.25-1.39 0.76-2.09s1.15-1.27 1.94-1.71c0.79-0.45 1.58-0.67 2.38-0.67 0.39 0 0.75 0.09 1.09 0.27s0.61 0.42 0.81 0.72 0.3 0.63 0.3 0.98-0.11 0.7-0.33 1.07-0.49 0.68-0.82 0.92-0.64 0.37-0.94 0.37c-0.17 0-0.32-0.04-0.44-0.11s-0.19-0.15-0.19-0.24c0-0.08 0.02-0.21 0.07-0.37 0.13-0.52 0.2-0.98 0.2-1.36s-0.12-0.74-0.35-1.08c-0.3 0.21-0.49 0.37-0.58 0.49-0.23 0.27-0.41 0.57-0.54 0.91-0.14 0.35-0.21 0.67-0.21 0.98 0 0.22 0.05 0.39 0.15 0.52s0.26 0.24 0.49 0.33 0.57 0.19 1.03 0.3c0.77 0.19 1.31 0.37 1.63 0.55 0.07 0.04 0.18 0.13 0.34 0.26 0.23 0.25 0.35 0.57 0.35 0.96 0 0.42-0.13 0.84-0.39 1.27s-0.66 0.87-1.21 1.32c-0.58 0.49-1.16 0.84-1.74 1.05s-1.21 0.32-1.91 0.32c-0.67 0-1.2-0.13-1.59-0.4-0.38-0.27-0.58-0.63-0.58-1.09 0-0.33 0.13-0.66 0.38-1s0.57-0.61 0.95-0.82 0.75-0.32 1.11-0.32c0.27 0 0.41 0.06 0.41 0.18 0 0.06-0.04 0.16-0.12 0.3-0.24 0.42-0.35 0.81-0.35 1.17 0.01 0.27 0.1 0.51 0.29 0.75z"/>
	<path class="st1" d="m93.75 51.31-0.02 0.5c-0.09 1.21-0.19 2.19-0.33 2.95-0.13 0.76-0.28 1.22-0.45 1.39-0.23 0.25-0.59 0.37-1.08 0.37-0.53 0-0.9-0.1-1.13-0.31-0.09-0.1-0.15-0.2-0.18-0.28s-0.05-0.24-0.05-0.46v-0.28c0.02-1.7 0.18-3.41 0.49-5.14 0.31-1.72 0.72-3.29 1.23-4.7s1.07-2.54 1.67-3.36c0.61-0.83 1.21-1.24 1.81-1.24 0.27 0 0.48 0.09 0.61 0.28 0.14 0.18 0.2 0.45 0.2 0.8 0 0.52-0.05 1.06-0.16 1.64s-0.24 1.05-0.4 1.41c-0.15 0.36-0.31 0.55-0.47 0.55-0.15 0-0.22-0.25-0.22-0.76v-0.28c0-0.51-0.01-0.84-0.03-1s-0.07-0.26-0.14-0.32c-0.07 0.13-0.11 0.29-0.14 0.46-0.15 0.73-0.27 1.38-0.36 1.97s-0.23 1.54-0.41 2.86c-0.01 0.07-0.02 0.15-0.03 0.25-0.01 0.09-0.02 0.17-0.03 0.25h0.13c0.07-0.01 0.14-0.01 0.2-0.01h0.28c0.23-0.03 0.44-0.05 0.62-0.05 0.72 0 1.08 0.19 1.08 0.56 0 0.19-0.07 0.43-0.21 0.7-0.14 0.28-0.3 0.5-0.49 0.69-0.19 0.18-0.4 0.31-0.64 0.4-0.24 0.08-0.58 0.14-1.03 0.17h-0.2c-0.03-0.02-0.07-0.02-0.12-0.01z"/>
	<path class="st1" d="m103.3 44.12c0.9 0 1.35 0.11 1.35 0.32 0 0.24-0.2 0.37-0.61 0.39-0.49 0.03-0.95 0.17-1.37 0.42s-0.8 0.59-1.13 1.02-0.59 0.91-0.77 1.45-0.28 1.11-0.28 1.71c0 0.66 0.15 1.19 0.46 1.6 0.31 0.4 0.71 0.6 1.21 0.6 0.46 0 0.86-0.24 1.21-0.71s0.52-1.02 0.52-1.65c0-0.52-0.11-1-0.32-1.45s-0.53-0.83-0.94-1.14c-0.18-0.14-0.26-0.24-0.26-0.3 0-0.08 0.12-0.22 0.37-0.39 0.28-0.19 0.59-0.35 0.94-0.47 0.35-0.13 0.64-0.19 0.87-0.19 0.27 0 0.53 0.07 0.78 0.21s0.46 0.35 0.65 0.61 0.33 0.57 0.43 0.91 0.15 0.71 0.15 1.1c0 0.64-0.12 1.28-0.36 1.9-0.24 0.63-0.56 1.13-0.95 1.52-0.51 0.49-1.12 0.89-1.84 1.2s-1.4 0.47-2.05 0.47c-0.63 0-1.26-0.11-1.88-0.33s-1.11-0.51-1.48-0.86c-0.48-0.48-0.73-1.17-0.73-2.06 0-0.7 0.17-1.41 0.52-2.11s0.81-1.34 1.4-1.91 1.24-1.02 1.95-1.35c0.72-0.34 1.44-0.51 2.16-0.51z"/>
	<path class="st1" d="m110.13 50.49-0.04 0.18c0 0.1-0.01 0.25-0.04 0.45-0.02 0.3-0.06 0.54-0.1 0.73s-0.11 0.34-0.19 0.47-0.2 0.26-0.35 0.4c-0.44 0.41-0.89 0.61-1.34 0.61-0.36 0-0.63-0.13-0.8-0.4s-0.26-0.7-0.26-1.29c0-0.47 0.05-1.06 0.16-1.75s0.23-1.32 0.39-1.87l0.07-0.24c0-0.04 0.02-0.11 0.05-0.23 0.22-0.82 0.43-1.43 0.62-1.83s0.42-0.72 0.68-0.96c0.24-0.19 0.5-0.28 0.8-0.28 0.43 0 0.69 0.26 0.78 0.78 0.08-0.07 0.17-0.16 0.25-0.25 0.18-0.21 0.31-0.35 0.41-0.42s0.21-0.1 0.34-0.1c0.52 0 0.78 0.52 0.78 1.55 0 0.56-0.06 1.11-0.18 1.64s-0.27 0.96-0.46 1.29c-0.18 0.33-0.37 0.5-0.55 0.5-0.2 0-0.3-0.38-0.3-1.14 0-0.4-0.02-0.71-0.07-0.94s-0.12-0.4-0.21-0.53c-0.18 0.34-0.3 1.11-0.35 2.33-0.04 0.68-0.07 1.12-0.09 1.3z"/>
	<path class="st1" d="m123 49.97-2.48 2.54c-0.32 0.32-0.58 0.54-0.78 0.66s-0.41 0.18-0.65 0.18c-0.37 0-0.68-0.14-0.93-0.41-0.25-0.28-0.38-0.61-0.38-1.01 0-0.25 0.04-0.52 0.11-0.81 0.08-0.29 0.23-0.73 0.45-1.31 0.04-0.12 0.08-0.23 0.12-0.31 0.04-0.09 0.07-0.16 0.1-0.22l-0.04-0.04c-0.59 0.62-1.16 1.27-1.73 1.95-0.47 0.56-0.85 0.98-1.13 1.26s-0.53 0.49-0.75 0.63-0.42 0.21-0.6 0.21c-0.39 0-0.71-0.15-0.94-0.46s-0.35-0.73-0.35-1.26c0-0.67 0.29-1.76 0.87-3.26 0.52-1.33 0.92-2.23 1.21-2.68 0.42-0.63 0.9-0.95 1.44-0.95 0.33 0 0.6 0.08 0.81 0.23s0.32 0.36 0.32 0.6c0 0.45-0.17 1.15-0.52 2.08-0.13 0.34-0.27 0.74-0.41 1.17l0.04 0.04c0.22-0.25 0.58-0.68 1.08-1.28 0.85-1.05 1.5-1.77 1.93-2.15 0.56-0.52 1.08-0.78 1.55-0.78 0.21 0 0.4 0.07 0.59 0.21s0.34 0.33 0.45 0.56 0.17 0.48 0.17 0.73c0 0.26-0.19 0.93-0.56 2-0.08 0.22-0.14 0.4-0.18 0.53s-0.08 0.24-0.12 0.33l0.05 0.04 0.23-0.23c0.07-0.07 0.14-0.14 0.22-0.21 0.08-0.08 0.16-0.15 0.23-0.21 0.16-0.16 0.57-0.57 1.23-1.25 0.44-0.49 0.78-0.82 1.03-1s0.49-0.27 0.72-0.27c0.38 0 0.66 0.13 0.86 0.39s0.29 0.64 0.29 1.14c0 0.31-0.05 0.8-0.15 1.46-0.08 0.75-0.14 1.34-0.18 1.77-0.03 0.43-0.05 0.73-0.05 0.9 0 0.13 0.01 0.29 0.02 0.49s0.04 0.41 0.08 0.63 0.08 0.47 0.15 0.75c0.07 0.33 0.12 0.59 0.15 0.78-0.05 0.22-0.21 0.4-0.48 0.55s-0.56 0.23-0.88 0.23c-0.5 0-0.96-0.22-1.4-0.67-0.19-0.21-0.34-0.41-0.45-0.62s-0.18-0.46-0.23-0.75c-0.04-0.29-0.07-0.67-0.07-1.14 0-0.31 0.04-0.95 0.11-1.92l-0.04-0.04-0.13 0.2z"/>
	<path class="st1" d="m133.66 50.62v0.04l-0.04-0.04c-0.56 0.66-1.08 1.2-1.55 1.62s-0.9 0.74-1.3 0.95-0.76 0.32-1.1 0.32c-0.68 0-1.24-0.23-1.68-0.68s-0.66-1.03-0.66-1.73c0-0.43 0.11-0.94 0.33-1.53s0.52-1.16 0.9-1.73c0.64-0.92 1.44-1.7 2.4-2.35 0.99-0.66 1.95-0.99 2.87-0.99 0.78 0 1.41 0.16 1.91 0.48s0.75 0.72 0.75 1.2c0 0.36-0.12 0.74-0.37 1.14 0.33 0 0.53 0.03 0.62 0.1 0.08 0.07 0.13 0.23 0.13 0.49 0-0.02-0.02 0.1-0.05 0.37-0.04 0.6-0.05 1.16-0.05 1.68 0 0.27 0 0.48 0.01 0.62s0.02 0.3 0.04 0.48 0.04 0.33 0.05 0.44c0.05 0.28 0.13 0.57 0.24 0.85-0.36 0.36-0.71 0.62-1.05 0.79s-0.67 0.25-1.02 0.25c-0.93 0-1.4-0.78-1.4-2.35 0-0.18 0.01-0.32 0.02-0.42zm0.55-2.08-0.17 0.05c-0.44 0.12-0.75 0.18-0.95 0.18-0.24 0-0.35-0.06-0.35-0.18 0-0.04 0.05-0.15 0.15-0.34 0.34-0.52 0.51-1 0.51-1.45 0-0.26-0.05-0.5-0.14-0.71s-0.19-0.32-0.3-0.32c-0.1 0-0.25 0.1-0.45 0.31-0.56 0.61-1.01 1.24-1.34 1.88s-0.49 1.21-0.49 1.72c0 0.33 0.07 0.61 0.2 0.83 0.14 0.22 0.31 0.33 0.51 0.33 0.18 0 0.5-0.19 0.99-0.56 0.48-0.38 1.02-0.87 1.62-1.49l0.25-0.2-0.04-0.05z"/>
	<path class="st1" d="m141.97 48.47 0.55-0.64c0.55-0.61 0.99-1.07 1.32-1.37 0.32-0.3 0.61-0.52 0.87-0.65s0.52-0.2 0.79-0.2c0.43 0 0.73 0.12 0.91 0.35s0.26 0.63 0.26 1.2c0 0.24-0.02 0.58-0.07 1.05-0.07 0.61-0.11 1.19-0.11 1.73 0 0.61 0.03 1.1 0.09 1.47 0.04 0.23 0.11 0.46 0.19 0.69 0.06 0.22 0.09 0.37 0.09 0.45 0 0.1-0.04 0.17-0.11 0.23-0.19 0.16-0.44 0.31-0.75 0.43s-0.57 0.18-0.78 0.18c-0.35 0-0.66-0.12-0.94-0.35-0.28-0.24-0.5-0.56-0.65-0.98s-0.23-0.89-0.23-1.42c0-0.35 0.04-0.77 0.11-1.25l-0.04-0.04c-0.26 0.29-0.47 0.52-0.63 0.69s-0.31 0.33-0.45 0.48c-0.68 0.78-1.25 1.48-1.73 2.1-0.18 0.24-0.35 0.45-0.5 0.64-0.22 0.22-0.48 0.34-0.76 0.34-0.39 0-0.7-0.15-0.95-0.44-0.24-0.29-0.36-0.67-0.36-1.13 0-0.28 0.03-0.63 0.1-1.05 0.07-0.41 0.16-0.85 0.27-1.32s0.24-0.95 0.4-1.45c0.15-0.5 0.32-0.97 0.5-1.42 0.28-0.75 0.62-1.33 1.02-1.75 0.27-0.27 0.6-0.41 0.99-0.41 0.63 0 0.95 0.41 0.95 1.23 0 0.6-0.13 1.46-0.38 2.58l0.03 0.03z"/>
	<path class="st1" d="m153.63 44.95 0.09-0.37c0.19-0.83 0.36-1.5 0.51-2.01s0.31-0.95 0.47-1.3 0.32-0.61 0.48-0.77c0.25-0.27 0.71-0.41 1.37-0.41 0.29 0 0.51 0.02 0.65 0.05s0.26 0.08 0.34 0.16c-0.29 0.9-0.49 1.58-0.6 2.03s-0.23 1.07-0.37 1.86c-0.21 1.28-0.31 2.44-0.31 3.48 0 0.68 0.06 1.4 0.17 2.13 0.11 0.74 0.3 1.56 0.55 2.46-0.32 0.22-0.63 0.42-0.92 0.57-0.29 0.16-0.57 0.28-0.84 0.37-0.26 0.09-0.5 0.14-0.7 0.14-0.35 0-0.6-0.17-0.75-0.52-0.12-0.28-0.2-0.51-0.24-0.69-0.04-0.17-0.1-0.65-0.19-1.44-0.81 0.85-1.59 1.52-2.33 2-0.74 0.49-1.34 0.73-1.78 0.73-0.51 0-0.93-0.21-1.25-0.62-0.32-0.42-0.49-0.95-0.49-1.6 0-0.59 0.13-1.24 0.38-1.96s0.6-1.41 1.04-2.09c0.29-0.44 0.59-0.82 0.9-1.12 0.3-0.31 0.65-0.59 1.04-0.85 0.7-0.46 1.29-0.69 1.76-0.69 0.24 0 0.58 0.15 1.02 0.46zm-0.28 4.31v-0.53c-0.31 0.27-0.54 0.41-0.69 0.41-0.08 0-0.13-0.04-0.13-0.13 0-0.04 0.02-0.11 0.05-0.23 0.13-0.36 0.19-0.72 0.19-1.05 0-0.49-0.11-1-0.32-1.53-0.09-0.27-0.2-0.41-0.34-0.41-0.07 0-0.12 0.03-0.16 0.09-0.2 0.23-0.39 0.56-0.57 0.98s-0.33 0.88-0.45 1.37-0.18 0.93-0.18 1.31c0 0.72 0.22 1.08 0.65 1.08 0.22 0 0.51-0.13 0.88-0.39 0.38-0.24 0.73-0.57 1.07-0.97z"/>
	<path class="st1" d="m163.93 44.12c0.9 0 1.35 0.11 1.35 0.32 0 0.24-0.2 0.37-0.61 0.39-0.49 0.03-0.95 0.17-1.37 0.42s-0.8 0.59-1.13 1.02-0.59 0.91-0.77 1.45-0.28 1.11-0.28 1.71c0 0.66 0.15 1.19 0.46 1.6 0.31 0.4 0.71 0.6 1.21 0.6 0.46 0 0.86-0.24 1.21-0.71s0.52-1.02 0.52-1.65c0-0.52-0.11-1-0.32-1.45-0.22-0.45-0.53-0.83-0.94-1.14-0.18-0.14-0.26-0.24-0.26-0.3 0-0.08 0.12-0.22 0.37-0.39 0.28-0.19 0.59-0.35 0.94-0.47s0.64-0.19 0.87-0.19c0.27 0 0.53 0.07 0.78 0.21 0.24 0.14 0.46 0.35 0.65 0.61s0.33 0.57 0.43 0.91 0.15 0.71 0.15 1.1c0 0.64-0.12 1.28-0.36 1.9-0.24 0.63-0.56 1.13-0.95 1.52-0.51 0.49-1.12 0.89-1.84 1.2s-1.4 0.47-2.05 0.47c-0.63 0-1.26-0.11-1.88-0.33s-1.11-0.51-1.48-0.86c-0.48-0.48-0.73-1.17-0.73-2.06 0-0.7 0.17-1.41 0.52-2.11s0.81-1.34 1.4-1.91 1.24-1.02 1.96-1.35c0.7-0.34 1.42-0.51 2.15-0.51z"/>
	<path class="st1" d="m174.23 53.36c-0.27-0.02-0.52-0.14-0.74-0.37-0.22-0.24-0.38-0.5-0.48-0.79-0.09-0.28-0.14-0.65-0.14-1.1 0-1 0.19-2.13 0.56-3.39s0.8-2.17 1.27-2.73c0.19-0.24 0.45-0.35 0.78-0.35 0.35 0 0.63 0.16 0.85 0.48s0.32 0.74 0.32 1.26c0 0.77-0.11 1.67-0.33 2.7s-0.53 2.11-0.93 3.22c-0.16 0.45-0.35 0.75-0.58 0.91-0.16 0.1-0.34 0.15-0.55 0.15h-0.03zm1.1-9.14c-0.57-0.02-0.85-0.36-0.85-1.03 0-0.33 0.08-0.72 0.25-1.16s0.36-0.77 0.57-0.98c0.11-0.12 0.22-0.2 0.33-0.25s0.26-0.07 0.43-0.07c0.3 0 0.53 0.07 0.67 0.22s0.21 0.4 0.21 0.74c0 0.43-0.07 0.84-0.22 1.22s-0.35 0.7-0.6 0.94-0.5 0.36-0.76 0.36h-0.03z"/>
	<path class="st1" d="m181.45 48.47 0.55-0.64c0.55-0.61 0.99-1.07 1.32-1.37 0.32-0.3 0.61-0.52 0.87-0.65s0.52-0.2 0.79-0.2c0.43 0 0.73 0.12 0.91 0.35s0.26 0.63 0.26 1.2c0 0.24-0.02 0.58-0.07 1.05-0.07 0.61-0.11 1.19-0.11 1.73 0 0.61 0.03 1.1 0.09 1.47 0.04 0.23 0.11 0.46 0.19 0.69 0.06 0.22 0.09 0.37 0.09 0.45 0 0.1-0.04 0.17-0.11 0.23-0.19 0.16-0.44 0.31-0.75 0.43s-0.57 0.18-0.78 0.18c-0.35 0-0.66-0.12-0.94-0.35-0.28-0.24-0.5-0.56-0.65-0.98s-0.23-0.89-0.23-1.42c0-0.35 0.04-0.77 0.11-1.25l-0.04-0.04c-0.26 0.29-0.47 0.52-0.63 0.69s-0.31 0.33-0.45 0.48c-0.68 0.78-1.25 1.48-1.73 2.1-0.18 0.24-0.35 0.45-0.5 0.64-0.22 0.22-0.48 0.34-0.76 0.34-0.39 0-0.7-0.15-0.95-0.44-0.24-0.29-0.36-0.67-0.36-1.13 0-0.28 0.03-0.63 0.1-1.05s0.16-0.85 0.27-1.32 0.24-0.95 0.4-1.45c0.15-0.5 0.32-0.97 0.5-1.42 0.28-0.75 0.62-1.33 1.02-1.75 0.27-0.27 0.6-0.41 0.99-0.41 0.63 0 0.95 0.41 0.95 1.23 0 0.6-0.13 1.46-0.38 2.58l0.03 0.03z"/>
	<path class="st1" d="m193.1 44.95 0.09-0.37c0.19-0.83 0.36-1.5 0.51-2.01s0.31-0.95 0.47-1.3 0.32-0.61 0.48-0.77c0.25-0.27 0.71-0.41 1.37-0.41 0.29 0 0.51 0.02 0.65 0.05s0.26 0.08 0.34 0.16c-0.29 0.9-0.49 1.58-0.6 2.03s-0.23 1.07-0.37 1.86c-0.21 1.28-0.31 2.44-0.31 3.48 0 0.68 0.06 1.4 0.17 2.13 0.11 0.74 0.3 1.56 0.55 2.46-0.32 0.22-0.63 0.42-0.92 0.57-0.29 0.16-0.57 0.28-0.84 0.37-0.26 0.09-0.5 0.14-0.7 0.14-0.35 0-0.6-0.17-0.75-0.52-0.12-0.28-0.2-0.51-0.24-0.69-0.04-0.17-0.1-0.65-0.19-1.44-0.81 0.85-1.59 1.52-2.33 2-0.74 0.49-1.34 0.73-1.78 0.73-0.51 0-0.93-0.21-1.25-0.62-0.32-0.42-0.49-0.95-0.49-1.6 0-0.59 0.13-1.24 0.38-1.96s0.6-1.41 1.04-2.09c0.29-0.44 0.59-0.82 0.9-1.12 0.3-0.31 0.65-0.59 1.04-0.85 0.7-0.46 1.29-0.69 1.76-0.69 0.24 0 0.58 0.15 1.02 0.46zm-0.28 4.31v-0.53c-0.31 0.27-0.54 0.41-0.69 0.41-0.08 0-0.13-0.04-0.13-0.13 0-0.04 0.02-0.11 0.05-0.23 0.13-0.36 0.19-0.72 0.19-1.05 0-0.49-0.11-1-0.32-1.53-0.09-0.27-0.2-0.41-0.34-0.41-0.07 0-0.12 0.03-0.16 0.09-0.2 0.23-0.39 0.56-0.57 0.98s-0.33 0.88-0.45 1.37-0.18 0.93-0.18 1.31c0 0.72 0.22 1.08 0.65 1.08 0.22 0 0.51-0.13 0.88-0.39 0.38-0.24 0.73-0.57 1.07-0.97z"/>
	<path class="st1" d="m203.33 50.42-0.15 0.13c-0.03 0.02-0.23 0.17-0.61 0.46-0.73 0.57-1.33 1.02-1.8 1.35s-0.87 0.57-1.18 0.73c-0.32 0.15-0.57 0.23-0.76 0.23-0.33 0-0.59-0.13-0.79-0.4s-0.3-0.62-0.3-1.05c0-0.73 0.11-1.57 0.33-2.54s0.51-1.92 0.88-2.86c0.41-1.04 0.9-1.68 1.49-1.91 0.21-0.09 0.45-0.14 0.73-0.14 0.38 0 0.69 0.12 0.93 0.35 0.24 0.24 0.35 0.55 0.35 0.94 0 0.27-0.05 0.55-0.14 0.84-0.09 0.3-0.24 0.65-0.44 1.06l-0.11 0.26c-0.52 1.1-0.78 1.77-0.78 2.01 0 0.14 0.05 0.21 0.15 0.21 0.09 0 0.21-0.06 0.35-0.19 0.15-0.13 0.37-0.36 0.67-0.7 0.19-0.23 0.45-0.52 0.8-0.86l0.34-0.34 0.29-0.31c0.61-0.61 1.11-1.04 1.5-1.31s0.71-0.4 0.96-0.4c0.49 0 0.73 0.42 0.73 1.26 0 0.18-0.02 0.49-0.06 0.94-0.07 0.87-0.11 1.61-0.11 2.22 0.01 0.12 0.01 0.23 0.01 0.33v0.39c0.04 0.41 0.07 0.72 0.09 0.94l0.06 0.52c0 0.18-0.16 0.34-0.49 0.48s-0.71 0.21-1.14 0.21c-0.39 0-0.73-0.08-1.01-0.23s-0.49-0.38-0.64-0.69c-0.15-0.3-0.22-0.67-0.22-1.11 0-0.05 0.01-0.15 0.02-0.29s0.04-0.31 0.05-0.53z"/>
	<path class="st1" d="m210.3 53.66c0.36-0.02 0.68-0.19 0.98-0.52 0.29-0.33 0.44-0.69 0.44-1.08 0-0.27-0.09-0.48-0.26-0.64-0.19-0.19-0.61-0.37-1.26-0.55-0.96-0.28-1.59-0.59-1.88-0.94-0.27-0.28-0.41-0.61-0.41-1 0-0.7 0.25-1.39 0.76-2.09 0.5-0.7 1.15-1.27 1.94-1.71 0.79-0.45 1.58-0.67 2.38-0.67 0.39 0 0.75 0.09 1.09 0.27s0.61 0.42 0.81 0.72 0.3 0.63 0.3 0.98-0.11 0.7-0.33 1.07-0.49 0.68-0.82 0.92c-0.33 0.25-0.64 0.37-0.94 0.37-0.17 0-0.32-0.04-0.44-0.11s-0.19-0.15-0.19-0.24c0-0.08 0.02-0.21 0.07-0.37 0.13-0.52 0.2-0.98 0.2-1.36s-0.12-0.74-0.35-1.08c-0.3 0.21-0.49 0.37-0.58 0.49-0.23 0.27-0.41 0.57-0.54 0.91-0.14 0.35-0.21 0.67-0.21 0.98 0 0.22 0.05 0.39 0.15 0.52s0.26 0.24 0.49 0.33 0.57 0.19 1.03 0.3c0.77 0.19 1.31 0.37 1.63 0.55 0.07 0.04 0.18 0.13 0.34 0.26 0.23 0.25 0.35 0.57 0.35 0.96 0 0.42-0.13 0.84-0.39 1.27s-0.66 0.87-1.21 1.32c-0.58 0.49-1.16 0.84-1.74 1.05s-1.21 0.32-1.91 0.32c-0.67 0-1.2-0.13-1.59-0.4-0.38-0.27-0.58-0.63-0.58-1.09 0-0.33 0.13-0.66 0.38-1s0.57-0.61 0.95-0.82 0.75-0.32 1.11-0.32c0.27 0 0.41 0.06 0.41 0.18 0 0.06-0.04 0.16-0.12 0.3-0.24 0.42-0.35 0.81-0.35 1.17 0.01 0.27 0.1 0.51 0.29 0.75z"/>
	<path class="st1" d="m217.66 44.47 0.04-0.11c0.4-1.13 0.75-1.92 1.04-2.38 0.14-0.22 0.33-0.41 0.58-0.58 0.47-0.3 0.91-0.45 1.32-0.45 0.24 0 0.43 0.05 0.55 0.16 0.13 0.11 0.19 0.27 0.19 0.47 0 0.14-0.09 0.42-0.27 0.85-0.31 0.72-0.54 1.38-0.7 2.01 0.1 0.01 0.2 0.03 0.3 0.05 0.36 0.05 0.6 0.12 0.72 0.19s0.17 0.2 0.17 0.38c0 0.32-0.08 0.62-0.25 0.89s-0.38 0.47-0.64 0.6c-0.2 0.09-0.52 0.15-0.97 0.18-0.08 0.24-0.16 0.56-0.26 0.97-0.05 0.36-0.11 0.87-0.18 1.51-0.04 0.24-0.05 0.46-0.05 0.66 0 0.96 0.46 1.44 1.39 1.44h0.08c0.11 0 0.16 0.02 0.16 0.05 0 0.1-0.1 0.26-0.31 0.49s-0.43 0.43-0.68 0.61c-0.27 0.18-0.56 0.33-0.87 0.44-0.32 0.11-0.6 0.16-0.86 0.16-0.64 0-1.16-0.22-1.55-0.65-0.4-0.43-0.6-1-0.6-1.71 0-0.3 0.05-0.7 0.16-1.19s0.27-1.15 0.5-1.97c0.04-0.15 0.08-0.3 0.12-0.46s0.07-0.26 0.07-0.29c-0.24-0.01-0.42-0.06-0.52-0.15-0.1-0.1-0.15-0.25-0.15-0.47 0-0.38 0.15-0.74 0.44-1.08 0.29-0.32 0.64-0.53 1.03-0.62z"/>
	<path class="st1" d="m225.42 50.49-0.04 0.18c0 0.1-0.01 0.25-0.04 0.45-0.02 0.3-0.06 0.54-0.1 0.73s-0.11 0.34-0.19 0.47c-0.08 0.12-0.2 0.26-0.35 0.4-0.44 0.41-0.89 0.61-1.34 0.61-0.36 0-0.63-0.13-0.8-0.4s-0.26-0.7-0.26-1.29c0-0.47 0.05-1.06 0.16-1.75s0.24-1.32 0.39-1.87l0.07-0.24c0-0.04 0.02-0.11 0.05-0.23 0.22-0.82 0.43-1.43 0.62-1.83s0.42-0.72 0.68-0.96c0.24-0.19 0.5-0.28 0.8-0.28 0.43 0 0.69 0.26 0.78 0.78 0.08-0.07 0.17-0.16 0.25-0.25 0.18-0.21 0.31-0.35 0.41-0.42s0.21-0.1 0.34-0.1c0.52 0 0.78 0.52 0.78 1.55 0 0.56-0.06 1.11-0.18 1.64s-0.27 0.96-0.46 1.29-0.37 0.5-0.55 0.5c-0.2 0-0.3-0.38-0.3-1.14 0-0.4-0.02-0.71-0.07-0.94s-0.12-0.4-0.21-0.53c-0.18 0.34-0.3 1.11-0.35 2.33-0.04 0.68-0.07 1.12-0.09 1.3z"/>
	<path class="st1" d="m229.71 53.36c-0.27-0.02-0.52-0.14-0.74-0.37-0.22-0.24-0.38-0.5-0.48-0.79-0.09-0.28-0.14-0.65-0.14-1.1 0-1 0.19-2.13 0.56-3.39s0.8-2.17 1.27-2.73c0.19-0.24 0.45-0.35 0.78-0.35 0.35 0 0.63 0.16 0.85 0.48s0.32 0.74 0.32 1.26c0 0.77-0.11 1.67-0.33 2.7s-0.53 2.11-0.93 3.22c-0.16 0.45-0.35 0.75-0.58 0.91-0.16 0.1-0.34 0.15-0.55 0.15h-0.03zm1.1-9.14c-0.57-0.02-0.85-0.36-0.85-1.03 0-0.33 0.08-0.72 0.25-1.16s0.36-0.77 0.57-0.98c0.11-0.12 0.22-0.2 0.33-0.25s0.26-0.07 0.43-0.07c0.3 0 0.53 0.07 0.67 0.22s0.21 0.4 0.21 0.74c0 0.43-0.07 0.84-0.22 1.22s-0.35 0.7-0.6 0.94-0.5 0.36-0.76 0.36h-0.03z"/>
	<path class="st1" d="m239.26 50.62v0.04l-0.04-0.04c-0.56 0.66-1.08 1.2-1.55 1.62s-0.9 0.74-1.3 0.95-0.76 0.32-1.1 0.32c-0.68 0-1.24-0.23-1.68-0.68s-0.66-1.03-0.66-1.73c0-0.43 0.11-0.94 0.33-1.53s0.52-1.16 0.9-1.73c0.64-0.92 1.44-1.7 2.4-2.35 0.99-0.66 1.95-0.99 2.87-0.99 0.78 0 1.41 0.16 1.91 0.48s0.75 0.72 0.75 1.2c0 0.36-0.12 0.74-0.37 1.14 0.33 0 0.53 0.03 0.62 0.1 0.08 0.07 0.13 0.23 0.13 0.49 0-0.02-0.02 0.1-0.05 0.37-0.04 0.6-0.05 1.16-0.05 1.68 0 0.27 0 0.48 0.01 0.62s0.02 0.3 0.04 0.48 0.04 0.33 0.05 0.44c0.05 0.28 0.13 0.57 0.24 0.85-0.36 0.36-0.71 0.62-1.05 0.79s-0.67 0.25-1.02 0.25c-0.93 0-1.4-0.78-1.4-2.35 0-0.18 0.01-0.32 0.02-0.42zm0.54-2.08-0.17 0.05c-0.44 0.12-0.75 0.18-0.95 0.18-0.24 0-0.35-0.06-0.35-0.18 0-0.04 0.05-0.15 0.15-0.34 0.34-0.52 0.51-1 0.51-1.45 0-0.26-0.05-0.5-0.14-0.71-0.09-0.22-0.19-0.32-0.3-0.32-0.1 0-0.25 0.1-0.45 0.31-0.56 0.61-1.01 1.24-1.34 1.88s-0.49 1.21-0.49 1.72c0 0.33 0.07 0.61 0.2 0.83 0.14 0.22 0.31 0.33 0.51 0.33 0.18 0 0.5-0.19 0.99-0.56 0.48-0.38 1.02-0.87 1.62-1.49l0.25-0.2-0.04-0.05z"/>
	<path class="st1" d="m246.01 53.66c0.36-0.02 0.68-0.19 0.98-0.52 0.29-0.33 0.44-0.69 0.44-1.08 0-0.27-0.09-0.48-0.26-0.64-0.19-0.19-0.61-0.37-1.26-0.55-0.96-0.28-1.59-0.59-1.88-0.94-0.27-0.28-0.41-0.61-0.41-1 0-0.7 0.25-1.39 0.76-2.09 0.5-0.7 1.15-1.27 1.94-1.71 0.79-0.45 1.58-0.67 2.38-0.67 0.39 0 0.75 0.09 1.09 0.27s0.61 0.42 0.81 0.72 0.3 0.63 0.3 0.98-0.11 0.7-0.33 1.07-0.49 0.68-0.82 0.92c-0.33 0.25-0.64 0.37-0.94 0.37-0.17 0-0.32-0.04-0.44-0.11s-0.19-0.15-0.19-0.24c0-0.08 0.02-0.21 0.07-0.37 0.13-0.52 0.2-0.98 0.2-1.36s-0.12-0.74-0.35-1.08c-0.3 0.21-0.49 0.37-0.58 0.49-0.23 0.27-0.41 0.57-0.54 0.91-0.14 0.35-0.21 0.67-0.21 0.98 0 0.22 0.05 0.39 0.15 0.52s0.26 0.24 0.49 0.33 0.57 0.19 1.03 0.3c0.77 0.19 1.31 0.37 1.63 0.55 0.07 0.04 0.18 0.13 0.34 0.26 0.23 0.25 0.35 0.57 0.35 0.96 0 0.42-0.13 0.84-0.39 1.27s-0.66 0.87-1.21 1.32c-0.58 0.49-1.16 0.84-1.74 1.05s-1.21 0.32-1.91 0.32c-0.67 0-1.2-0.13-1.59-0.4-0.38-0.27-0.58-0.63-0.58-1.09 0-0.33 0.13-0.66 0.38-1s0.57-0.61 0.95-0.82 0.75-0.32 1.11-0.32c0.27 0 0.41 0.06 0.41 0.18 0 0.06-0.04 0.16-0.12 0.3-0.24 0.42-0.35 0.81-0.35 1.17 0.01 0.27 0.1 0.51 0.29 0.75z"/>

</svg>
