<?xml version="1.0" encoding="UTF-8"?>
<svg enable-background="new 0 0 300 100" version="1.1" viewBox="0 0 300 100" xml:space="preserve" xmlns="http://www.w3.org/2000/svg">
<style type="text/css">
	.st0{fill:#0066A5;}
	.st1{fill:#0D0E0E;}
</style>

	<path class="st0" d="m28.62 49.46h-8.27l-0.98 2.28c-0.32 0.76-0.48 1.39-0.48 1.88 0 0.66 0.26 1.14 0.79 1.45 0.31 0.18 1.08 0.32 2.3 0.41v0.64h-7.79v-0.64c0.84-0.13 1.53-0.47 2.07-1.04s1.21-1.75 2-3.53l8.37-18.68h0.33l8.44 19.2c0.81 1.82 1.47 2.96 1.99 3.44 0.39 0.36 0.94 0.56 1.66 0.62v0.64h-11.33v-0.64h0.47c0.91 0 1.55-0.13 1.92-0.38 0.25-0.18 0.38-0.45 0.38-0.79 0-0.21-0.03-0.42-0.1-0.64-0.02-0.1-0.2-0.54-0.52-1.29l-1.25-2.93zm-0.59-1.28-3.49-8.06-3.59 8.06h7.08z"/>
	<path class="st0" d="m40.28 32.71h12.09v0.64h-0.6c-0.91 0-1.53 0.09-1.87 0.28s-0.58 0.45-0.73 0.79c-0.15 0.33-0.22 1.17-0.22 2.5v11.46c0 2.09 0.16 3.48 0.47 4.16 0.32 0.68 0.84 1.24 1.56 1.69 0.73 0.45 1.64 0.67 2.75 0.67 1.27 0 2.34-0.28 3.24-0.85 0.89-0.57 1.56-1.36 2-2.36s0.66-2.75 0.66-5.23v-9.55c0-1.05-0.11-1.8-0.33-2.24-0.22-0.45-0.49-0.76-0.83-0.93-0.52-0.26-1.25-0.4-2.19-0.4v-0.64h8.1v0.64h-0.48c-0.66 0-1.2 0.13-1.64 0.4s-0.75 0.66-0.95 1.19c-0.15 0.37-0.22 1.03-0.22 1.99v8.89c0 2.75-0.18 4.74-0.54 5.96s-1.25 2.34-2.65 3.37-3.32 1.54-5.75 1.54c-2.03 0-3.59-0.27-4.7-0.81-1.51-0.74-2.57-1.68-3.19-2.83s-0.93-2.7-0.93-4.64v-11.47c0-1.35-0.07-2.18-0.22-2.51s-0.41-0.59-0.78-0.79-1.05-0.29-2.04-0.28v-0.64z"/>
	<path class="st0" d="m87.29 32.71v6.34h-0.62c-0.37-1.46-0.78-2.51-1.23-3.15s-1.06-1.15-1.85-1.53c-0.44-0.21-1.2-0.31-2.3-0.31h-1.74v18.06c0 1.2 0.07 1.95 0.2 2.24 0.13 0.3 0.39 0.56 0.78 0.79 0.38 0.22 0.91 0.34 1.58 0.34h0.78v0.64h-12.26v-0.64h0.78c0.68 0 1.23-0.12 1.64-0.36 0.3-0.16 0.54-0.44 0.71-0.83 0.13-0.28 0.19-1 0.19-2.18v-18.06h-1.69c-1.58 0-2.72 0.33-3.44 1-1 0.93-1.63 2.26-1.9 3.99h-0.66v-6.34h21.03z"/>
	<path class="st0" d="m101.59 32.39c3.73-0.14 6.76 0.95 9.09 3.26s3.5 5.21 3.5 8.68c0 2.97-0.87 5.58-2.61 7.84-2.3 2.99-5.55 4.49-9.76 4.49s-7.47-1.43-9.77-4.28c-1.82-2.26-2.73-4.93-2.73-8.03 0-3.48 1.18-6.37 3.55-8.69s5.27-3.41 8.73-3.27zm0.21 1.1c-2.14 0-3.77 1.09-4.89 3.28-0.91 1.8-1.36 4.37-1.36 7.74 0 3.99 0.7 6.95 2.11 8.86 0.98 1.34 2.35 2 4.11 2 1.19 0 2.18-0.29 2.97-0.86 1.01-0.74 1.8-1.91 2.37-3.53s0.85-3.73 0.85-6.33c0-3.1-0.29-5.41-0.86-6.95-0.58-1.54-1.31-2.62-2.2-3.25s-1.94-0.96-3.1-0.96z"/>
	<path class="st0" d="m132.29 48.15 6.35-15.44h9.53v0.64h-0.76c-0.69 0-1.24 0.12-1.66 0.36-0.29 0.16-0.52 0.43-0.69 0.81-0.13 0.28-0.19 1-0.19 2.16v15.44c0 1.2 0.06 1.95 0.19 2.24s0.39 0.56 0.78 0.79c0.39 0.22 0.92 0.34 1.57 0.34h0.76v0.64h-12.22v-0.64h0.76c0.69 0 1.24-0.12 1.66-0.36 0.29-0.16 0.52-0.44 0.69-0.83 0.13-0.28 0.19-1 0.19-2.18v-17.35l-8.98 21.36h-0.41l-9.12-21.2v16.49c0 1.15 0.03 1.86 0.09 2.12 0.15 0.58 0.47 1.04 0.98 1.41 0.5 0.36 1.29 0.54 2.36 0.54v0.64h-8.01v-0.64h0.24c0.52 0.01 1-0.07 1.45-0.25s0.79-0.42 1.02-0.72 0.41-0.72 0.54-1.26c0.02-0.13 0.03-0.71 0.03-1.76v-14.82c0-1.19-0.06-1.93-0.19-2.22s-0.39-0.55-0.78-0.78c-0.39-0.22-0.92-0.34-1.57-0.34h-0.74v-0.64h9.57l6.56 15.45z"/>
	<path class="st0" d="m163.52 49.46h-8.27l-0.98 2.28c-0.32 0.76-0.48 1.39-0.48 1.88 0 0.66 0.26 1.14 0.79 1.45 0.31 0.18 1.08 0.32 2.3 0.41v0.64h-7.79v-0.64c0.84-0.13 1.53-0.47 2.07-1.04s1.21-1.75 2-3.53l8.37-18.68h0.33l8.44 19.2c0.81 1.82 1.47 2.96 1.99 3.44 0.39 0.36 0.94 0.56 1.66 0.62v0.64h-11.33v-0.64h0.47c0.91 0 1.55-0.13 1.92-0.38 0.25-0.18 0.38-0.45 0.38-0.79 0-0.21-0.03-0.42-0.1-0.64-0.02-0.1-0.2-0.54-0.52-1.29l-1.25-2.93zm-0.59-1.28-3.49-8.06-3.59 8.06h7.08z"/>
	<path class="st0" d="m194.03 32.71v6.34h-0.62c-0.37-1.46-0.78-2.51-1.23-3.15s-1.06-1.15-1.85-1.53c-0.44-0.21-1.2-0.31-2.3-0.31h-1.74v18.06c0 1.2 0.07 1.95 0.2 2.24 0.13 0.3 0.39 0.56 0.78 0.79 0.38 0.22 0.91 0.34 1.58 0.34h0.78v0.64h-12.26v-0.64h0.78c0.68 0 1.23-0.12 1.64-0.36 0.3-0.16 0.54-0.44 0.71-0.83 0.13-0.28 0.19-1 0.19-2.18v-18.06h-1.69c-1.58 0-2.72 0.33-3.44 1-1 0.93-1.63 2.26-1.9 3.99h-0.66v-6.34h21.03z"/>
	<path class="st0" d="m208.26 55.49v0.64h-12.24v-0.64h0.78c0.68 0 1.23-0.12 1.64-0.36 0.3-0.16 0.53-0.44 0.69-0.83 0.13-0.28 0.19-1 0.19-2.18v-15.4c0-1.2-0.06-1.95-0.19-2.24-0.13-0.3-0.38-0.56-0.77-0.79-0.39-0.22-0.91-0.34-1.56-0.34h-0.78v-0.64h12.24v0.64h-0.78c-0.68 0-1.23 0.12-1.64 0.36-0.3 0.16-0.54 0.44-0.71 0.83-0.13 0.28-0.19 1-0.19 2.18v15.4c0 1.2 0.07 1.95 0.2 2.24s0.39 0.56 0.78 0.79c0.38 0.22 0.91 0.34 1.56 0.34h0.78z"/>
	<path class="st0" d="m230.65 32.71-13.76 22.1h4.45c2.11 0 3.58-0.13 4.42-0.4 1.37-0.41 2.55-1.18 3.54-2.29s1.67-2.6 2.05-4.46h0.67l-0.95 8.46h-21.44l13.78-22.14h-3.47c-1.35 0-2.23 0.04-2.66 0.12-0.81 0.15-1.56 0.45-2.27 0.89s-1.3 1.03-1.76 1.77c-0.47 0.74-0.83 1.67-1.1 2.8h-0.64l0.64-6.85h18.5z"/>
	<path class="st0" d="m247.37 49.46h-8.27l-0.98 2.28c-0.32 0.76-0.48 1.39-0.48 1.88 0 0.66 0.26 1.14 0.79 1.45 0.31 0.18 1.08 0.32 2.3 0.41v0.64h-7.79v-0.64c0.84-0.13 1.53-0.47 2.07-1.04s1.21-1.75 2-3.53l8.37-18.68h0.33l8.44 19.2c0.81 1.82 1.47 2.96 1.99 3.44 0.39 0.36 0.94 0.56 1.66 0.62v0.64h-11.33v-0.64h0.47c0.91 0 1.55-0.13 1.92-0.38 0.25-0.18 0.38-0.45 0.38-0.79 0-0.21-0.03-0.42-0.1-0.64-0.02-0.1-0.2-0.54-0.52-1.29l-1.25-2.93zm-0.59-1.28-3.49-8.06-3.59 8.06h7.08z"/>
	<path class="st0" d="m267.58 45.46v6.56c0 1.27 0.08 2.06 0.23 2.39 0.16 0.33 0.43 0.59 0.82 0.79s1.12 0.29 2.19 0.29v0.64h-11.98v-0.64c1.08 0 1.82-0.1 2.2-0.3 0.39-0.2 0.66-0.46 0.81-0.79 0.15-0.32 0.23-1.12 0.23-2.38v-15.2c0-1.27-0.08-2.06-0.23-2.39-0.16-0.33-0.43-0.59-0.82-0.79s-1.12-0.29-2.19-0.29v-0.64h10.88c2.83 0 4.9 0.2 6.22 0.59 1.31 0.39 2.38 1.11 3.21 2.17s1.24 2.29 1.24 3.7c0 1.73-0.62 3.15-1.86 4.28-0.79 0.71-1.91 1.25-3.33 1.61l5.63 7.93c0.74 1.02 1.26 1.66 1.57 1.92 0.47 0.36 1.02 0.55 1.64 0.59v0.64h-7.37l-7.55-10.67h-1.54zm0-11.49v10.26h0.98c1.6 0 2.8-0.15 3.59-0.44s1.42-0.82 1.87-1.59 0.68-1.76 0.68-3c0-1.78-0.42-3.1-1.25-3.95-0.84-0.85-2.18-1.28-4.03-1.28h-1.84z"/>


	<path class="st1" d="m63.15 74.61-0.08 0.35c-0.03 0.12-0.05 0.22-0.07 0.31-0.02 0.08-0.04 0.16-0.05 0.22s-0.03 0.13-0.04 0.19c-0.39 1.68-0.71 2.73-0.95 3.15-0.11 0.19-0.27 0.35-0.49 0.5-0.7 0.45-1.24 0.67-1.63 0.67-0.27 0-0.5-0.1-0.69-0.3s-0.28-0.45-0.28-0.74c0-0.53 0.23-1.52 0.7-2.96 0.14-0.46 0.27-0.86 0.39-1.19 0.12-0.34 0.26-0.72 0.43-1.15s0.35-0.88 0.56-1.36 0.36-0.82 0.45-1.01c-0.72 0.11-1.41 0.16-2.08 0.16s-1.01-0.23-1.01-0.7c0-0.3 0.22-0.68 0.65-1.14 0.29-0.3 0.57-0.51 0.82-0.63s0.55-0.18 0.91-0.18c0.23 0 0.54 0.01 0.94 0.02s0.95 0.04 1.66 0.09l0.23 0.02 0.22 0.02c0.6 0.03 0.99 0.07 1.19 0.11 0.19 0.04 0.35 0.13 0.49 0.25 0.11 0.12 0.16 0.27 0.16 0.43 0 0.17-0.03 0.35-0.1 0.53s-0.15 0.32-0.25 0.4c-0.14 0.15-0.52 0.28-1.15 0.38-0.05 0-0.11 0.01-0.17 0.02l-0.16 0.03c0.13 0.13 0.2 0.28 0.2 0.43s-0.08 0.48-0.23 0.99c-0.05 0.13-0.17 0.54-0.35 1.24l-0.12 0.49-0.1 0.36z"/>
	<path class="st1" d="m67.24 77.44-0.04 0.16c0 0.09-0.01 0.23-0.03 0.4-0.02 0.27-0.05 0.49-0.09 0.65-0.04 0.17-0.1 0.31-0.17 0.42-0.08 0.11-0.18 0.23-0.31 0.36-0.4 0.37-0.8 0.55-1.2 0.55-0.33 0-0.57-0.12-0.72-0.36-0.16-0.24-0.23-0.63-0.23-1.16 0-0.43 0.05-0.95 0.14-1.57s0.21-1.18 0.35-1.68l0.06-0.21c0-0.03 0.02-0.1 0.05-0.2 0.2-0.74 0.39-1.29 0.56-1.65s0.37-0.64 0.61-0.86c0.21-0.17 0.45-0.25 0.72-0.25 0.39 0 0.62 0.23 0.7 0.7 0.08-0.07 0.15-0.14 0.22-0.23 0.16-0.19 0.28-0.32 0.37-0.38s0.19-0.09 0.3-0.09c0.47 0 0.7 0.46 0.7 1.39 0 0.51-0.05 1-0.16 1.47s-0.25 0.86-0.41 1.16c-0.17 0.3-0.33 0.45-0.49 0.45-0.18 0-0.27-0.34-0.27-1.02 0-0.36-0.02-0.64-0.06-0.85-0.04-0.2-0.1-0.36-0.19-0.48-0.16 0.31-0.27 1-0.32 2.09-0.05 0.63-0.08 1.03-0.09 1.19z"/>
	<path class="st1" d="m75.49 77.56v0.03l-0.03-0.03c-0.51 0.59-0.97 1.08-1.39 1.46s-0.81 0.66-1.17 0.85-0.69 0.29-0.99 0.29c-0.61 0-1.11-0.2-1.51-0.61s-0.6-0.93-0.6-1.55c0-0.39 0.1-0.84 0.29-1.37 0.2-0.53 0.47-1.05 0.81-1.55 0.57-0.83 1.29-1.53 2.16-2.11 0.89-0.59 1.76-0.89 2.58-0.89 0.7 0 1.27 0.14 1.72 0.43s0.67 0.65 0.67 1.08c0 0.32-0.11 0.66-0.34 1.02 0.29 0 0.48 0.03 0.56 0.09s0.11 0.21 0.11 0.44c0-0.02-0.01 0.09-0.04 0.34-0.03 0.54-0.05 1.04-0.05 1.51 0 0.25 0 0.43 0.01 0.56s0.02 0.27 0.03 0.43c0.02 0.16 0.03 0.29 0.05 0.39 0.04 0.26 0.11 0.51 0.21 0.76-0.33 0.32-0.64 0.56-0.94 0.71s-0.61 0.22-0.92 0.22c-0.84 0-1.26-0.7-1.26-2.11 0.03-0.17 0.03-0.3 0.04-0.39zm0.49-1.88-0.16 0.05c-0.39 0.11-0.68 0.16-0.85 0.16-0.21 0-0.32-0.05-0.32-0.16 0-0.04 0.04-0.14 0.13-0.3 0.31-0.46 0.46-0.9 0.46-1.31 0-0.23-0.04-0.45-0.12-0.64s-0.17-0.29-0.27-0.29c-0.09 0-0.22 0.09-0.4 0.28-0.51 0.55-0.91 1.11-1.21 1.69s-0.45 1.09-0.45 1.55c0 0.3 0.06 0.55 0.18 0.74 0.12 0.2 0.28 0.29 0.46 0.29 0.16 0 0.45-0.17 0.89-0.51 0.43-0.34 0.92-0.78 1.46-1.34l0.22-0.18-0.02-0.03z"/>
	<path class="st1" d="m82.97 75.62 0.49-0.57c0.5-0.55 0.89-0.96 1.18-1.23s0.55-0.47 0.78-0.59 0.47-0.18 0.71-0.18c0.39 0 0.66 0.1 0.82 0.31s0.24 0.57 0.24 1.08c0 0.21-0.02 0.53-0.07 0.94-0.07 0.55-0.1 1.07-0.1 1.55 0 0.55 0.03 0.99 0.08 1.32 0.04 0.21 0.1 0.41 0.17 0.62 0.05 0.2 0.08 0.33 0.08 0.4 0 0.09-0.03 0.16-0.1 0.2-0.17 0.15-0.39 0.28-0.67 0.38-0.28 0.11-0.51 0.16-0.7 0.16-0.31 0-0.59-0.11-0.85-0.32s-0.45-0.51-0.59-0.88c-0.14-0.38-0.21-0.8-0.21-1.28 0-0.32 0.03-0.69 0.1-1.12l-0.03-0.03c-0.23 0.26-0.42 0.47-0.57 0.62-0.14 0.15-0.28 0.3-0.4 0.43-0.61 0.7-1.13 1.33-1.55 1.89-0.16 0.22-0.31 0.41-0.45 0.57-0.2 0.2-0.43 0.3-0.69 0.3-0.35 0-0.63-0.13-0.85-0.39s-0.33-0.6-0.33-1.01c0-0.26 0.03-0.57 0.09-0.94s0.14-0.77 0.24-1.19 0.22-0.86 0.36-1.3c0.14-0.45 0.29-0.87 0.45-1.28 0.25-0.67 0.56-1.19 0.92-1.57 0.25-0.25 0.54-0.37 0.89-0.37 0.57 0 0.85 0.37 0.85 1.1 0 0.54-0.11 1.31-0.34 2.32l0.05 0.06z"/>
	<path class="st1" d="m90.44 80.29c0.32-0.02 0.61-0.17 0.88-0.47s0.4-0.62 0.4-0.97c0-0.24-0.08-0.43-0.24-0.57-0.17-0.17-0.55-0.34-1.14-0.5-0.87-0.25-1.43-0.53-1.69-0.84-0.25-0.25-0.37-0.55-0.37-0.9 0-0.63 0.23-1.25 0.68-1.88 0.46-0.63 1.04-1.14 1.75-1.54s1.42-0.6 2.14-0.6c0.35 0 0.68 0.08 0.98 0.25s0.55 0.38 0.73 0.65 0.27 0.56 0.27 0.88c0 0.31-0.1 0.63-0.29 0.96-0.2 0.33-0.44 0.61-0.74 0.83s-0.58 0.33-0.85 0.33c-0.15 0-0.28-0.03-0.4-0.1-0.11-0.07-0.17-0.14-0.17-0.21 0-0.08 0.02-0.19 0.07-0.34 0.12-0.47 0.18-0.88 0.18-1.23 0-0.34-0.1-0.67-0.31-0.97-0.27 0.19-0.44 0.33-0.52 0.44-0.21 0.24-0.37 0.51-0.48 0.82-0.13 0.31-0.19 0.6-0.19 0.88 0 0.2 0.04 0.35 0.14 0.47 0.09 0.12 0.24 0.22 0.44 0.3s0.51 0.17 0.93 0.27c0.69 0.17 1.18 0.33 1.46 0.49 0.07 0.04 0.17 0.12 0.3 0.24 0.21 0.22 0.31 0.51 0.31 0.87 0 0.38-0.12 0.76-0.35 1.14s-0.6 0.78-1.09 1.19c-0.52 0.44-1.04 0.76-1.56 0.95s-1.09 0.29-1.72 0.29c-0.61 0-1.08-0.12-1.43-0.36s-0.52-0.57-0.52-0.98c0-0.29 0.11-0.59 0.34-0.9 0.23-0.3 0.51-0.55 0.85-0.74s0.67-0.29 1-0.29c0.25 0 0.37 0.05 0.37 0.16 0 0.05-0.04 0.14-0.11 0.27-0.21 0.38-0.32 0.73-0.32 1.05 0.01 0.23 0.1 0.45 0.27 0.66z"/>
	<path class="st1" d="m98.51 78.18-0.02 0.45c-0.08 1.09-0.17 1.97-0.29 2.65s-0.26 1.1-0.41 1.25c-0.21 0.22-0.53 0.34-0.97 0.34-0.47 0-0.81-0.09-1.02-0.28-0.08-0.09-0.14-0.18-0.16-0.25-0.03-0.08-0.04-0.22-0.04-0.42v-0.25c0.02-1.53 0.16-3.07 0.44-4.62s0.65-2.96 1.1-4.23 0.96-2.28 1.5-3.03c0.55-0.74 1.09-1.12 1.63-1.12 0.25 0 0.43 0.08 0.55 0.25s0.18 0.4 0.18 0.72c0 0.46-0.05 0.96-0.15 1.48s-0.22 0.94-0.36 1.27-0.28 0.49-0.42 0.49c-0.13 0-0.2-0.23-0.2-0.69v-0.26c0-0.46-0.01-0.76-0.03-0.9s-0.06-0.24-0.13-0.29c-0.06 0.12-0.1 0.26-0.13 0.42-0.13 0.65-0.24 1.25-0.32 1.77-0.08 0.53-0.21 1.39-0.37 2.57-0.01 0.07-0.01 0.14-0.02 0.22s-0.02 0.16-0.02 0.22h0.11c0.07-0.01 0.13-0.01 0.18-0.01s0.14 0 0.25 0c0.21-0.03 0.39-0.04 0.56-0.04 0.65 0 0.98 0.17 0.98 0.51 0 0.17-0.06 0.39-0.18 0.63-0.12 0.25-0.27 0.45-0.44 0.62-0.17 0.16-0.36 0.28-0.58 0.36-0.22 0.07-0.53 0.12-0.93 0.15h-0.18c-0.02 0.01-0.06 0.01-0.11 0.02z"/>
	<path class="st1" d="m107.11 71.71c0.81 0 1.22 0.1 1.22 0.29 0 0.22-0.18 0.34-0.55 0.35-0.44 0.03-0.85 0.15-1.23 0.38-0.38 0.22-0.72 0.53-1.02 0.92s-0.53 0.82-0.69 1.31c-0.17 0.49-0.25 1-0.25 1.54 0 0.59 0.14 1.07 0.42 1.43s0.64 0.54 1.09 0.54c0.41 0 0.78-0.21 1.09-0.64s0.47-0.92 0.47-1.49c0-0.46-0.1-0.9-0.29-1.3-0.19-0.41-0.48-0.75-0.85-1.03-0.16-0.13-0.24-0.22-0.24-0.27 0-0.08 0.11-0.19 0.34-0.35 0.25-0.17 0.53-0.31 0.84-0.43 0.31-0.11 0.57-0.17 0.78-0.17 0.25 0 0.48 0.06 0.7 0.19s0.42 0.31 0.58 0.55c0.17 0.24 0.3 0.51 0.39 0.82s0.13 0.64 0.13 0.99c0 0.58-0.11 1.15-0.33 1.71s-0.5 1.02-0.86 1.37c-0.46 0.44-1.01 0.8-1.66 1.08s-1.26 0.42-1.84 0.42c-0.57 0-1.13-0.1-1.69-0.29-0.56-0.2-1-0.46-1.33-0.78-0.44-0.44-0.65-1.05-0.65-1.86 0-0.63 0.16-1.26 0.47-1.9 0.31-0.63 0.73-1.21 1.26-1.72 0.53-0.52 1.12-0.92 1.76-1.22 0.64-0.29 1.28-0.44 1.94-0.44z"/>
	<path class="st1" d="m113.25 77.44-0.03 0.16c0 0.09-0.01 0.23-0.03 0.4-0.02 0.27-0.05 0.49-0.09 0.65-0.04 0.17-0.1 0.31-0.17 0.42-0.08 0.11-0.18 0.23-0.31 0.36-0.4 0.37-0.8 0.55-1.2 0.55-0.33 0-0.57-0.12-0.72-0.36-0.16-0.24-0.23-0.63-0.23-1.16 0-0.43 0.05-0.95 0.14-1.57 0.1-0.62 0.21-1.18 0.35-1.68l0.07-0.21c0-0.03 0.02-0.1 0.05-0.2 0.2-0.74 0.39-1.29 0.56-1.65s0.37-0.64 0.61-0.86c0.21-0.17 0.45-0.25 0.72-0.25 0.39 0 0.62 0.23 0.7 0.7 0.08-0.07 0.15-0.14 0.22-0.23 0.16-0.19 0.28-0.32 0.37-0.38s0.19-0.09 0.3-0.09c0.47 0 0.7 0.46 0.7 1.39 0 0.51-0.05 1-0.16 1.47s-0.25 0.86-0.41 1.16c-0.17 0.3-0.33 0.45-0.49 0.45-0.18 0-0.27-0.34-0.27-1.02 0-0.36-0.02-0.64-0.06-0.85-0.04-0.2-0.1-0.36-0.19-0.48-0.16 0.31-0.27 1-0.32 2.09-0.07 0.63-0.09 1.03-0.11 1.19z"/>
	<path class="st1" d="m124.83 76.97-2.23 2.29c-0.29 0.29-0.52 0.49-0.7 0.59s-0.37 0.16-0.58 0.16c-0.33 0-0.61-0.12-0.84-0.37s-0.34-0.55-0.34-0.91c0-0.22 0.03-0.47 0.1-0.73s0.2-0.66 0.4-1.18c0.04-0.11 0.08-0.2 0.11-0.28 0.04-0.08 0.06-0.15 0.09-0.2l-0.03-0.03c-0.53 0.56-1.05 1.14-1.55 1.76-0.43 0.51-0.76 0.89-1.01 1.14s-0.48 0.44-0.68 0.56-0.38 0.19-0.54 0.19c-0.35 0-0.63-0.14-0.84-0.42s-0.31-0.66-0.31-1.14c0-0.61 0.26-1.58 0.78-2.94 0.47-1.2 0.83-2 1.09-2.41 0.38-0.57 0.81-0.85 1.29-0.85 0.29 0 0.54 0.07 0.73 0.21s0.29 0.32 0.29 0.54c0 0.41-0.15 1.03-0.46 1.87-0.12 0.31-0.24 0.66-0.37 1.05l0.03 0.03c0.2-0.22 0.53-0.61 0.97-1.15 0.77-0.95 1.35-1.59 1.74-1.94 0.51-0.47 0.97-0.7 1.39-0.7 0.19 0 0.36 0.06 0.53 0.19s0.3 0.29 0.4 0.5 0.15 0.43 0.15 0.66-0.17 0.83-0.51 1.8c-0.07 0.2-0.12 0.36-0.16 0.47s-0.07 0.21-0.11 0.29l0.04 0.03 0.2-0.2c0.06-0.06 0.13-0.12 0.2-0.19s0.14-0.13 0.21-0.19c0.15-0.14 0.52-0.52 1.11-1.12 0.39-0.44 0.7-0.73 0.92-0.9 0.22-0.16 0.44-0.24 0.65-0.24 0.34 0 0.6 0.12 0.77 0.35 0.18 0.23 0.27 0.57 0.27 1.03 0 0.28-0.04 0.72-0.13 1.32-0.08 0.68-0.13 1.21-0.16 1.59s-0.04 0.65-0.04 0.81c0 0.11 0.01 0.26 0.02 0.44s0.04 0.37 0.07 0.57 0.08 0.43 0.13 0.67c0.07 0.3 0.11 0.53 0.13 0.7-0.04 0.2-0.19 0.36-0.43 0.5s-0.51 0.2-0.79 0.2c-0.45 0-0.87-0.2-1.26-0.61-0.17-0.19-0.31-0.37-0.4-0.56-0.1-0.19-0.16-0.41-0.21-0.67-0.04-0.26-0.06-0.6-0.06-1.03 0-0.28 0.03-0.85 0.1-1.73l-0.03-0.03-0.14 0.21z"/>
	<path class="st1" d="m134.42 77.56v0.03l-0.03-0.03c-0.51 0.59-0.97 1.08-1.39 1.46s-0.81 0.66-1.17 0.85-0.69 0.29-0.99 0.29c-0.61 0-1.11-0.2-1.51-0.61s-0.6-0.93-0.6-1.55c0-0.39 0.1-0.84 0.29-1.37 0.2-0.53 0.47-1.05 0.81-1.55 0.57-0.83 1.29-1.53 2.16-2.11 0.89-0.59 1.76-0.89 2.58-0.89 0.7 0 1.27 0.14 1.72 0.43s0.67 0.65 0.67 1.08c0 0.32-0.11 0.66-0.34 1.02 0.29 0 0.48 0.03 0.56 0.09s0.11 0.21 0.11 0.44c0-0.02-0.01 0.09-0.04 0.34-0.03 0.54-0.05 1.04-0.05 1.51 0 0.25 0 0.43 0.01 0.56s0.02 0.27 0.03 0.43c0.02 0.16 0.03 0.29 0.05 0.39 0.04 0.26 0.11 0.51 0.21 0.76-0.33 0.32-0.64 0.56-0.94 0.71s-0.6 0.22-0.92 0.22c-0.84 0-1.26-0.7-1.26-2.11 0.02-0.17 0.02-0.3 0.04-0.39zm0.49-1.88-0.16 0.05c-0.39 0.11-0.68 0.16-0.85 0.16-0.21 0-0.32-0.05-0.32-0.16 0-0.04 0.04-0.14 0.13-0.3 0.31-0.46 0.46-0.9 0.46-1.31 0-0.23-0.04-0.45-0.12-0.64s-0.17-0.29-0.27-0.29c-0.09 0-0.22 0.09-0.4 0.28-0.51 0.55-0.91 1.11-1.21 1.69s-0.45 1.09-0.45 1.55c0 0.3 0.06 0.55 0.18 0.74 0.12 0.2 0.28 0.29 0.46 0.29 0.16 0 0.45-0.17 0.89-0.51 0.43-0.34 0.92-0.78 1.46-1.34l0.22-0.18-0.02-0.03z"/>
	<path class="st1" d="m141.89 75.62 0.49-0.57c0.5-0.55 0.89-0.96 1.18-1.23s0.55-0.47 0.78-0.59 0.47-0.18 0.71-0.18c0.39 0 0.66 0.1 0.82 0.31s0.24 0.57 0.24 1.08c0 0.21-0.02 0.53-0.07 0.94-0.07 0.55-0.1 1.07-0.1 1.55 0 0.55 0.03 0.99 0.08 1.32 0.04 0.21 0.1 0.41 0.17 0.62 0.05 0.2 0.08 0.33 0.08 0.4 0 0.09-0.03 0.16-0.1 0.2-0.17 0.15-0.39 0.28-0.67 0.38s-0.51 0.16-0.7 0.16c-0.31 0-0.59-0.11-0.85-0.32-0.25-0.21-0.45-0.51-0.59-0.88-0.14-0.38-0.21-0.8-0.21-1.28 0-0.32 0.03-0.69 0.1-1.12l-0.03-0.03c-0.23 0.26-0.42 0.47-0.57 0.62s-0.28 0.3-0.41 0.43c-0.61 0.7-1.13 1.33-1.55 1.89-0.16 0.22-0.31 0.41-0.45 0.57-0.2 0.2-0.43 0.3-0.69 0.3-0.35 0-0.63-0.13-0.85-0.39s-0.33-0.6-0.33-1.01c0-0.26 0.03-0.57 0.09-0.94s0.14-0.77 0.24-1.19 0.22-0.86 0.36-1.3c0.14-0.45 0.29-0.87 0.45-1.28 0.25-0.67 0.56-1.19 0.92-1.57 0.25-0.25 0.54-0.37 0.89-0.37 0.57 0 0.85 0.37 0.85 1.1 0 0.54-0.11 1.31-0.34 2.32l0.06 0.06z"/>
	<path class="st1" d="m152.38 72.45 0.08-0.34c0.17-0.75 0.32-1.35 0.46-1.81s0.28-0.85 0.42-1.17 0.29-0.55 0.43-0.69c0.23-0.25 0.64-0.37 1.23-0.37 0.26 0 0.46 0.01 0.59 0.04s0.23 0.08 0.31 0.15c-0.26 0.81-0.44 1.42-0.54 1.83s-0.21 0.96-0.33 1.67c-0.19 1.16-0.28 2.2-0.28 3.13 0 0.62 0.05 1.25 0.15 1.92 0.1 0.66 0.27 1.4 0.5 2.21-0.29 0.2-0.57 0.37-0.83 0.52-0.27 0.14-0.52 0.25-0.75 0.34-0.24 0.08-0.45 0.12-0.63 0.12-0.32 0-0.54-0.16-0.67-0.47-0.11-0.26-0.18-0.46-0.21-0.62s-0.09-0.59-0.17-1.3c-0.73 0.76-1.43 1.36-2.1 1.8s-1.2 0.66-1.6 0.66c-0.46 0-0.83-0.19-1.12-0.56s-0.44-0.85-0.44-1.44c0-0.53 0.11-1.12 0.34-1.76s0.54-1.27 0.94-1.88c0.26-0.4 0.53-0.73 0.81-1.01 0.27-0.28 0.59-0.53 0.94-0.76 0.63-0.41 1.16-0.62 1.59-0.62 0.18 0 0.48 0.14 0.88 0.41zm-0.26 3.89v-0.47c-0.28 0.25-0.49 0.37-0.62 0.37-0.08 0-0.11-0.04-0.11-0.11 0-0.03 0.02-0.1 0.05-0.2 0.11-0.33 0.17-0.64 0.17-0.95 0-0.44-0.1-0.9-0.29-1.37-0.08-0.25-0.18-0.37-0.3-0.37-0.06 0-0.11 0.03-0.15 0.08-0.18 0.21-0.35 0.5-0.52 0.88s-0.3 0.79-0.41 1.23-0.16 0.84-0.16 1.18c0 0.65 0.2 0.97 0.59 0.97 0.2 0 0.46-0.12 0.79-0.35 0.34-0.24 0.66-0.53 0.96-0.89z"/>
	<path class="st1" d="m161.64 71.71c0.81 0 1.22 0.1 1.22 0.29 0 0.22-0.18 0.34-0.55 0.35-0.44 0.03-0.85 0.15-1.23 0.38-0.38 0.22-0.72 0.53-1.02 0.92s-0.53 0.82-0.7 1.31-0.25 1-0.25 1.54c0 0.59 0.14 1.07 0.42 1.43s0.64 0.54 1.09 0.54c0.41 0 0.78-0.21 1.09-0.64s0.47-0.92 0.47-1.49c0-0.46-0.1-0.9-0.29-1.3-0.19-0.41-0.48-0.75-0.85-1.03-0.16-0.13-0.24-0.22-0.24-0.27 0-0.08 0.11-0.19 0.34-0.35 0.25-0.17 0.53-0.31 0.84-0.43 0.31-0.11 0.57-0.17 0.78-0.17 0.25 0 0.48 0.06 0.7 0.19s0.42 0.31 0.58 0.55c0.17 0.24 0.3 0.51 0.39 0.82s0.14 0.64 0.14 0.99c0 0.58-0.11 1.15-0.33 1.71s-0.5 1.02-0.86 1.37c-0.46 0.44-1.01 0.8-1.66 1.08s-1.26 0.42-1.84 0.42c-0.57 0-1.13-0.1-1.69-0.29-0.56-0.2-1-0.46-1.33-0.78-0.44-0.44-0.65-1.05-0.65-1.86 0-0.63 0.16-1.26 0.47-1.9 0.31-0.63 0.73-1.21 1.26-1.72 0.53-0.52 1.12-0.92 1.76-1.22 0.64-0.29 1.29-0.44 1.94-0.44z"/>
	<path class="st1" d="m170.91 80.02c-0.24-0.02-0.47-0.13-0.67-0.34-0.2-0.22-0.34-0.45-0.43-0.71-0.08-0.25-0.13-0.58-0.13-0.99 0-0.9 0.17-1.91 0.5-3.05 0.34-1.13 0.72-1.95 1.14-2.46 0.17-0.21 0.4-0.32 0.7-0.32 0.32 0 0.57 0.14 0.76 0.43s0.29 0.67 0.29 1.14c0 0.69-0.1 1.5-0.3 2.43s-0.48 1.9-0.84 2.9c-0.14 0.4-0.32 0.68-0.52 0.82-0.14 0.09-0.31 0.13-0.5 0.13zm0.98-8.22c-0.51-0.02-0.77-0.32-0.77-0.92 0-0.3 0.07-0.65 0.22-1.04 0.15-0.4 0.32-0.69 0.51-0.88 0.1-0.1 0.2-0.18 0.3-0.22s0.23-0.07 0.39-0.07c0.27 0 0.47 0.07 0.6 0.2s0.19 0.36 0.19 0.67c0 0.39-0.07 0.75-0.2 1.1s-0.31 0.63-0.54 0.84c-0.22 0.22-0.45 0.32-0.69 0.32h-0.01z"/>
	<path class="st1" d="m177.4 75.62 0.49-0.57c0.5-0.55 0.89-0.96 1.18-1.23s0.55-0.47 0.78-0.59 0.47-0.18 0.71-0.18c0.39 0 0.66 0.1 0.82 0.31s0.24 0.57 0.24 1.08c0 0.21-0.02 0.53-0.07 0.94-0.07 0.55-0.1 1.07-0.1 1.55 0 0.55 0.03 0.99 0.08 1.32 0.04 0.21 0.1 0.41 0.17 0.62 0.05 0.2 0.08 0.33 0.08 0.4 0 0.09-0.03 0.16-0.1 0.2-0.17 0.15-0.39 0.28-0.67 0.38-0.28 0.11-0.51 0.16-0.7 0.16-0.31 0-0.59-0.11-0.85-0.32-0.25-0.21-0.45-0.51-0.59-0.88-0.14-0.38-0.21-0.8-0.21-1.28 0-0.32 0.03-0.69 0.1-1.12l-0.03-0.03c-0.23 0.26-0.42 0.47-0.57 0.62s-0.28 0.3-0.41 0.43c-0.61 0.7-1.13 1.33-1.55 1.89-0.16 0.22-0.31 0.41-0.45 0.57-0.2 0.2-0.43 0.3-0.69 0.3-0.35 0-0.63-0.13-0.85-0.39s-0.33-0.6-0.33-1.01c0-0.26 0.03-0.57 0.09-0.94s0.14-0.77 0.24-1.19 0.22-0.86 0.36-1.3c0.14-0.45 0.29-0.87 0.45-1.28 0.25-0.67 0.56-1.19 0.92-1.57 0.25-0.25 0.54-0.37 0.89-0.37 0.57 0 0.85 0.37 0.85 1.1 0 0.54-0.11 1.31-0.34 2.32l0.06 0.06z"/>
	<path class="st1" d="m187.88 72.45 0.08-0.34c0.17-0.75 0.32-1.35 0.46-1.81s0.28-0.85 0.42-1.17 0.29-0.55 0.43-0.69c0.23-0.25 0.64-0.37 1.23-0.37 0.26 0 0.46 0.01 0.59 0.04s0.23 0.08 0.31 0.15c-0.26 0.81-0.44 1.42-0.54 1.83s-0.21 0.96-0.33 1.67c-0.19 1.16-0.28 2.2-0.28 3.13 0 0.62 0.05 1.25 0.15 1.92 0.1 0.66 0.27 1.4 0.5 2.21-0.29 0.2-0.57 0.37-0.83 0.52-0.27 0.14-0.52 0.25-0.75 0.34-0.24 0.08-0.45 0.12-0.63 0.12-0.32 0-0.54-0.16-0.67-0.47-0.11-0.26-0.18-0.46-0.21-0.62s-0.09-0.59-0.17-1.3c-0.73 0.76-1.43 1.36-2.1 1.8s-1.2 0.66-1.6 0.66c-0.46 0-0.83-0.19-1.12-0.56s-0.44-0.85-0.44-1.44c0-0.53 0.11-1.12 0.34-1.76s0.54-1.27 0.94-1.88c0.26-0.4 0.53-0.73 0.81-1.01 0.27-0.28 0.59-0.53 0.94-0.76 0.63-0.41 1.16-0.62 1.59-0.62 0.18 0 0.49 0.14 0.88 0.41zm-0.25 3.89v-0.47c-0.28 0.25-0.49 0.37-0.62 0.37-0.08 0-0.11-0.04-0.11-0.11 0-0.03 0.02-0.1 0.05-0.2 0.11-0.33 0.17-0.64 0.17-0.95 0-0.44-0.1-0.9-0.29-1.37-0.08-0.25-0.18-0.37-0.3-0.37-0.06 0-0.11 0.03-0.15 0.08-0.18 0.21-0.35 0.5-0.52 0.88s-0.3 0.79-0.41 1.23-0.16 0.84-0.16 1.18c0 0.65 0.2 0.97 0.59 0.97 0.2 0 0.46-0.12 0.79-0.35 0.34-0.24 0.66-0.53 0.96-0.89z"/>
	<path class="st1" d="m197.08 77.38-0.14 0.11c-0.03 0.02-0.21 0.16-0.55 0.42-0.65 0.51-1.19 0.92-1.62 1.21-0.43 0.3-0.78 0.52-1.06 0.65-0.28 0.14-0.51 0.21-0.69 0.21-0.29 0-0.53-0.12-0.71-0.36s-0.27-0.56-0.27-0.94c0-0.65 0.1-1.42 0.29-2.29s0.46-1.73 0.79-2.57c0.37-0.94 0.81-1.51 1.34-1.72 0.19-0.08 0.4-0.12 0.65-0.12 0.34 0 0.62 0.11 0.83 0.32s0.32 0.49 0.32 0.84c0 0.24-0.05 0.49-0.13 0.76s-0.21 0.59-0.39 0.96l-0.1 0.24c-0.47 0.99-0.7 1.6-0.7 1.81 0 0.13 0.04 0.19 0.13 0.19 0.08 0 0.19-0.06 0.32-0.17s0.33-0.32 0.61-0.63c0.17-0.21 0.41-0.47 0.72-0.78l0.3-0.3 0.26-0.28c0.55-0.55 1-0.94 1.35-1.18s0.64-0.36 0.87-0.36c0.44 0 0.65 0.38 0.65 1.14 0 0.16-0.02 0.44-0.06 0.84-0.07 0.78-0.1 1.45-0.1 1.99 0.01 0.11 0.01 0.21 0.01 0.3v0.35c0.04 0.37 0.07 0.65 0.08 0.84l0.06 0.47c0 0.16-0.15 0.31-0.44 0.43-0.29 0.13-0.63 0.19-1.02 0.19-0.35 0-0.66-0.07-0.91-0.21s-0.45-0.34-0.58-0.62-0.2-0.61-0.2-1c0-0.05 0.01-0.13 0.02-0.26s0.06-0.29 0.07-0.48z"/>
	<path class="st1" d="m203.35 80.29c0.32-0.02 0.61-0.17 0.88-0.47 0.26-0.3 0.4-0.62 0.4-0.97 0-0.24-0.08-0.43-0.24-0.57-0.17-0.17-0.55-0.34-1.14-0.5-0.87-0.25-1.43-0.53-1.69-0.84-0.25-0.25-0.37-0.55-0.37-0.9 0-0.63 0.23-1.25 0.68-1.88s1.04-1.14 1.75-1.54 1.42-0.6 2.14-0.6c0.35 0 0.68 0.08 0.98 0.25 0.31 0.16 0.55 0.38 0.73 0.65s0.27 0.56 0.27 0.88c0 0.31-0.1 0.63-0.29 0.96s-0.44 0.61-0.74 0.83-0.58 0.33-0.85 0.33c-0.15 0-0.29-0.03-0.4-0.1s-0.17-0.14-0.17-0.21c0-0.08 0.02-0.19 0.07-0.34 0.12-0.47 0.18-0.88 0.18-1.23 0-0.34-0.1-0.67-0.31-0.97-0.27 0.19-0.44 0.33-0.52 0.44-0.21 0.24-0.37 0.51-0.48 0.82-0.13 0.31-0.19 0.6-0.19 0.88 0 0.2 0.05 0.35 0.14 0.47s0.24 0.22 0.44 0.3 0.51 0.17 0.93 0.27c0.69 0.17 1.18 0.33 1.46 0.49 0.07 0.04 0.17 0.12 0.3 0.24 0.21 0.22 0.31 0.51 0.31 0.87 0 0.38-0.12 0.76-0.35 1.14s-0.6 0.78-1.09 1.19c-0.52 0.44-1.04 0.76-1.56 0.95s-1.09 0.29-1.72 0.29c-0.6 0-1.08-0.12-1.43-0.36s-0.52-0.57-0.52-0.98c0-0.29 0.11-0.59 0.34-0.9 0.23-0.3 0.51-0.55 0.85-0.74s0.67-0.29 1-0.29c0.25 0 0.37 0.05 0.37 0.16 0 0.05-0.04 0.14-0.11 0.27-0.21 0.38-0.32 0.73-0.32 1.05 0.02 0.23 0.1 0.45 0.27 0.66z"/>
	<path class="st1" d="m209.98 72.03 0.03-0.1c0.36-1.01 0.67-1.73 0.93-2.14 0.13-0.2 0.3-0.37 0.52-0.52 0.42-0.27 0.82-0.4 1.19-0.4 0.22 0 0.38 0.05 0.5 0.15 0.11 0.1 0.17 0.24 0.17 0.43 0 0.13-0.08 0.38-0.25 0.77-0.28 0.64-0.49 1.24-0.63 1.81 0.09 0.01 0.18 0.03 0.27 0.05 0.33 0.05 0.54 0.1 0.65 0.17 0.1 0.06 0.16 0.18 0.16 0.34 0 0.29-0.07 0.56-0.22 0.8-0.15 0.25-0.34 0.43-0.58 0.54-0.18 0.08-0.47 0.14-0.87 0.16-0.07 0.21-0.15 0.5-0.23 0.88-0.05 0.33-0.1 0.78-0.16 1.36-0.03 0.21-0.05 0.41-0.05 0.6 0 0.86 0.42 1.29 1.25 1.29h0.07c0.1 0 0.15 0.02 0.15 0.05 0 0.09-0.09 0.23-0.28 0.44s-0.39 0.39-0.61 0.55c-0.24 0.16-0.5 0.29-0.79 0.39-0.28 0.1-0.54 0.15-0.77 0.15-0.57 0-1.04-0.19-1.4-0.58s-0.54-0.9-0.54-1.54c0-0.27 0.05-0.63 0.14-1.07s0.24-1.03 0.45-1.77c0.03-0.13 0.07-0.27 0.11-0.41s0.06-0.23 0.07-0.26c-0.22-0.01-0.37-0.05-0.47-0.14-0.09-0.09-0.14-0.23-0.14-0.43 0-0.34 0.13-0.67 0.4-0.97 0.26-0.33 0.57-0.53 0.93-0.6z"/>
	<path class="st1" d="m216.96 77.44-0.03 0.16c0 0.09-0.01 0.23-0.03 0.4-0.02 0.27-0.05 0.49-0.09 0.65-0.04 0.17-0.1 0.31-0.17 0.42-0.08 0.11-0.18 0.23-0.31 0.36-0.4 0.37-0.8 0.55-1.2 0.55-0.33 0-0.57-0.12-0.72-0.36-0.16-0.24-0.23-0.63-0.23-1.16 0-0.43 0.05-0.95 0.14-1.57s0.21-1.18 0.35-1.68l0.07-0.21c0-0.03 0.02-0.1 0.05-0.2 0.2-0.74 0.39-1.29 0.56-1.65s0.37-0.64 0.61-0.86c0.21-0.17 0.45-0.25 0.72-0.25 0.39 0 0.62 0.23 0.7 0.7 0.08-0.07 0.15-0.14 0.22-0.23 0.16-0.19 0.28-0.32 0.37-0.38s0.19-0.09 0.3-0.09c0.47 0 0.7 0.46 0.7 1.39 0 0.51-0.05 1-0.16 1.47s-0.25 0.86-0.41 1.16c-0.17 0.3-0.33 0.45-0.49 0.45-0.18 0-0.27-0.34-0.27-1.02 0-0.36-0.02-0.64-0.06-0.85-0.04-0.2-0.11-0.36-0.19-0.48-0.16 0.31-0.27 1-0.32 2.09-0.07 0.63-0.1 1.03-0.11 1.19z"/>
	<path class="st1" d="m220.81 80.02c-0.24-0.02-0.47-0.13-0.67-0.34-0.2-0.22-0.34-0.45-0.43-0.71-0.08-0.25-0.13-0.58-0.13-0.99 0-0.9 0.17-1.91 0.5-3.05 0.34-1.13 0.72-1.95 1.14-2.46 0.17-0.21 0.4-0.32 0.7-0.32 0.32 0 0.57 0.14 0.76 0.43s0.29 0.67 0.29 1.14c0 0.69-0.1 1.5-0.3 2.43s-0.48 1.9-0.84 2.9c-0.14 0.4-0.32 0.68-0.52 0.82-0.14 0.09-0.31 0.13-0.5 0.13zm0.99-8.22c-0.51-0.02-0.77-0.32-0.77-0.92 0-0.3 0.07-0.65 0.22-1.04 0.15-0.4 0.32-0.69 0.51-0.88 0.1-0.1 0.2-0.18 0.3-0.22s0.23-0.07 0.39-0.07c0.27 0 0.47 0.07 0.6 0.2s0.19 0.36 0.19 0.67c0 0.39-0.07 0.75-0.2 1.1s-0.31 0.63-0.54 0.84c-0.22 0.22-0.45 0.32-0.69 0.32h-0.01z"/>
	<path class="st1" d="m229.4 77.56v0.03l-0.03-0.03c-0.51 0.59-0.97 1.08-1.39 1.46s-0.81 0.66-1.17 0.85-0.69 0.29-0.99 0.29c-0.61 0-1.11-0.2-1.51-0.61s-0.6-0.93-0.6-1.55c0-0.39 0.1-0.84 0.29-1.37s0.47-1.05 0.81-1.55c0.57-0.83 1.29-1.53 2.16-2.11 0.89-0.59 1.76-0.89 2.58-0.89 0.7 0 1.27 0.14 1.72 0.43s0.67 0.65 0.67 1.08c0 0.32-0.11 0.66-0.34 1.02 0.29 0 0.48 0.03 0.56 0.09s0.11 0.21 0.11 0.44c0-0.02-0.01 0.09-0.04 0.34-0.03 0.54-0.05 1.04-0.05 1.51 0 0.25 0 0.43 0.01 0.56s0.02 0.27 0.03 0.43c0.02 0.16 0.03 0.29 0.05 0.39 0.04 0.26 0.11 0.51 0.21 0.76-0.33 0.32-0.64 0.56-0.94 0.71s-0.61 0.22-0.92 0.22c-0.84 0-1.26-0.7-1.26-2.11 0.02-0.17 0.03-0.3 0.04-0.39zm0.49-1.88-0.16 0.05c-0.39 0.11-0.68 0.16-0.85 0.16-0.21 0-0.32-0.05-0.32-0.16 0-0.04 0.04-0.14 0.13-0.3 0.31-0.46 0.46-0.9 0.46-1.31 0-0.23-0.04-0.45-0.12-0.64s-0.17-0.29-0.27-0.29c-0.09 0-0.22 0.09-0.4 0.28-0.51 0.55-0.91 1.11-1.21 1.69s-0.45 1.09-0.45 1.55c0 0.3 0.06 0.55 0.18 0.74 0.12 0.2 0.28 0.29 0.46 0.29 0.16 0 0.45-0.17 0.89-0.51 0.43-0.34 0.92-0.78 1.46-1.34l0.22-0.18-0.02-0.03z"/>
	<path class="st1" d="m235.48 80.29c0.32-0.02 0.61-0.17 0.88-0.47 0.26-0.3 0.4-0.62 0.4-0.97 0-0.24-0.08-0.43-0.24-0.57-0.17-0.17-0.55-0.34-1.14-0.5-0.87-0.25-1.43-0.53-1.69-0.84-0.25-0.25-0.37-0.55-0.37-0.9 0-0.63 0.23-1.25 0.68-1.88s1.04-1.14 1.75-1.54 1.42-0.6 2.14-0.6c0.35 0 0.68 0.08 0.98 0.25 0.31 0.16 0.55 0.38 0.73 0.65s0.27 0.56 0.27 0.88c0 0.31-0.1 0.63-0.29 0.96-0.2 0.33-0.44 0.61-0.74 0.83s-0.58 0.33-0.85 0.33c-0.15 0-0.29-0.03-0.4-0.1s-0.17-0.14-0.17-0.21c0-0.08 0.02-0.19 0.07-0.34 0.12-0.47 0.18-0.88 0.18-1.23 0-0.34-0.1-0.67-0.31-0.97-0.27 0.19-0.44 0.33-0.52 0.44-0.21 0.24-0.37 0.51-0.48 0.82-0.13 0.31-0.19 0.6-0.19 0.88 0 0.2 0.05 0.35 0.14 0.47s0.24 0.22 0.44 0.3 0.51 0.17 0.93 0.27c0.69 0.17 1.18 0.33 1.46 0.49 0.07 0.04 0.17 0.12 0.3 0.24 0.21 0.22 0.31 0.51 0.31 0.87 0 0.38-0.12 0.76-0.35 1.14s-0.6 0.78-1.09 1.19c-0.52 0.44-1.04 0.76-1.56 0.95s-1.09 0.29-1.72 0.29c-0.61 0-1.08-0.12-1.43-0.36s-0.52-0.57-0.52-0.98c0-0.29 0.11-0.59 0.34-0.9 0.23-0.3 0.51-0.55 0.85-0.74s0.67-0.29 1-0.29c0.25 0 0.37 0.05 0.37 0.16 0 0.05-0.04 0.14-0.11 0.27-0.21 0.38-0.32 0.73-0.32 1.05 0.01 0.23 0.1 0.45 0.27 0.66z"/>

</svg>
